<?xml version="1.0" encoding="utf-8"?>
<COLLADA xmlns="http://www.collada.org/2005/11/COLLADASchema" version="1.4.1" xmlns:xsi="http://www.w3.org/2001/XMLSchema-instance">
  <asset>
    <contributor>
      <author>Blender User</author>
      <authoring_tool>Blender 4.2.0 commit date:2024-07-16, commit time:06:20, hash:a51f293548ad</authoring_tool>
    </contributor>
    <created>2025-07-07T01:15:15</created>
    <modified>2025-07-07T01:15:15</modified>
    <unit name="meter" meter="1"/>
    <up_axis>Z_UP</up_axis>
  </asset>
  <library_images/>
  <library_geometries>
    <geometry id="Plane-mesh" name="Plane">
      <mesh>
        <source id="Plane-mesh-positions">
          <float_array id="Plane-mesh-positions-array" count="792">-14.02259 -1.127238 0 -14.02259 -1.277238 0 -3.022588 -1.127238 0 -3.022588 -1.277238 0 -3.172612 -1.127238 0 -3.172612 -1.277238 0 -3.022588 -10.13031 0 -3.172612 -10.13031 0 -3.022588 -9.979945 0 -3.172612 -9.979945 0 -14.02259 -10.13031 0 -14.02259 -9.979945 0 -12.27395 -10.13031 0 -12.27395 -9.979945 0 -13.87244 -9.979945 0 -13.87244 -10.13031 0 -13.0732 -10.13031 0 -13.0732 -9.979945 0 -14.02259 -1.277238 0 -13.87244 -1.277238 0 -20.01952 -10.13031 0 -20.01952 -9.979945 0 -19.86919 -10.13031 0 -19.86919 -9.979945 0 -20.01952 -8.175123 0 -19.86919 -8.175123 0 -20.01952 -8.025417 0 -19.86919 -8.025417 0 -26.01883 -8.175123 0 -26.01883 -8.025417 0 -26.16917 -8.175123 0 -26.16917 -8.025417 0 -26.01883 -9.979945 0 -26.16917 -9.979945 0 -26.01883 -10.13031 0 -26.16917 -10.13031 0 -44.12908 -9.979945 0 -44.12908 -10.13031 0 -44.27871 -9.979945 0 -44.27871 -10.13031 0 -44.12908 -4.560832 0 -44.27871 -4.560832 0 -44.12908 -4.41043 0 -44.27871 -4.41043 0 -50.08293 -4.560832 0 -50.08293 -4.41043 0 -50.23333 -4.560832 0 -50.23333 -4.41043 0 -50.08293 -10.13031 0 -50.23333 -10.13031 0 -50.08293 -9.979945 0 -50.23333 -9.979945 0 -51.03349 -10.13031 0 -51.03349 -9.979945 0 -51.18358 -10.13031 0 -51.18358 -9.979945 0 -51.03349 -12.5255 0 -51.18358 -12.5255 0 -51.03349 -12.67584 0 -51.18358 -12.67584 0 -48.23196 -12.5255 0 -48.23196 -12.67584 0 -48.38222 -12.5255 0 -48.38222 -12.67584 0 -48.23196 -16.87195 0 -48.38222 -16.87195 0 -48.23196 -17.02236 0 -48.38222 -17.02236 0 -46.83276 -16.87195 0 -46.83276 -17.02236 0 -46.98269 -16.87195 0 -46.98269 -17.02236 0 -46.83276 -17.62232 0 -46.98269 -17.62232 0 -46.83276 -17.77235 0 -46.98269 -17.77235 0 -44.27871 -17.62232 0 -44.27871 -17.77235 0 -44.12908 -17.62232 0 -44.12908 -17.77235 0 -44.27871 -12.67584 0 -44.12908 -12.67584 0 -44.27871 -12.5255 0 -44.12908 -12.5255 0 -3.172612 -12.67584 0 -3.172612 -12.5255 0 -3.022588 -12.67584 0 -3.022588 -12.5255 0 -3.172612 -18.07863 0 -3.022588 -18.07863 0 -3.172612 -18.22833 0 -3.022588 -18.22833 0 2.973329 -18.07863 0 2.973329 -18.22833 0 3.123772 -18.07863 0 3.123772 -18.22833 0 2.973329 -12.67584 0 3.123772 -12.67584 0 2.973329 -12.5255 0 3.123772 -12.5255 0 3.584232 -12.67584 0 3.584232 -12.5255 0 3.734255 -12.67584 0 3.734255 -12.5255 0 3.584232 -10.13031 0 3.734255 -10.13031 0 3.584232 -9.979945 0 3.734255 -9.979945 0 3.123772 -10.13031 0 3.123772 -9.979945 0 2.973329 -10.13031 0 2.973329 -9.979945 0 1.174855 -10.13031 0 1.174855 -9.979945 0 1.325082 -10.13031 0 1.325082 -9.979945 0 3.123772 -5.780987 0 2.973329 -5.780987 0 1.174855 -5.780987 0 1.325082 -5.780987 0 1.174855 -5.630585 0 1.325082 -5.630585 0 -0.2229733 -5.780987 0 -0.2229733 -5.630585 0 -0.07320594 -5.780987 0 -0.07320594 -5.630585 0 -0.2229733 -4.980666 0 -0.07320594 -4.980666 0 -0.2229733 -4.830264 0 -0.07320594 -4.830264 0 -3.022588 -4.980666 0 -3.022588 -4.830264 0 -3.172612 -1.127238 3.5 -14.02259 -1.127238 3.5 -14.02259 -1.277238 3.5 -3.172612 -1.277238 3.5 -3.022588 -1.277238 3.5 -3.022588 -1.127238 3.5 -3.172612 -10.13031 3.5 -3.022588 -10.13031 3.5 -3.022588 -9.979945 3.5 -3.172612 -9.979945 3.5 -14.02259 -9.979945 3.5 -14.02259 -10.13031 3.5 -12.27395 -10.13031 3.5 -13.87244 -9.979945 3.5 -12.27395 -9.979945 3.5 -13.0732 -9.979945 3.5 -13.87244 -10.13031 3.5 -13.0732 -10.13031 3.5 -13.87244 -1.277238 3.5 -14.02259 -1.277238 3.5 -20.01952 -9.979945 3.5 -20.01952 -10.13031 3.5 -19.86919 -10.13031 3.5 -19.86919 -9.979945 3.5 -19.86919 -8.175123 3.5 -20.01952 -8.175123 3.5 -19.86919 -8.025417 3.5 -20.01952 -8.025417 3.5 -26.01883 -8.025417 3.5 -26.01883 -8.175123 3.5 -26.16917 -8.025417 3.5 -26.16917 -8.175123 3.5 -26.16917 -9.979945 3.5 -26.01883 -9.979945 3.5 -26.16917 -10.13031 3.5 -26.01883 -10.13031 3.5 -44.12908 -9.979945 3.5 -44.12908 -10.13031 3.5 -44.27871 -9.979945 3.5 -44.27871 -10.13031 3.5 -44.12908 -4.560832 3.5 -44.27871 -4.560832 3.5 -44.12908 -4.41043 3.5 -44.27871 -4.41043 3.5 -50.08293 -4.41043 3.5 -50.08293 -4.560832 3.5 -50.23333 -4.41043 3.5 -50.23333 -4.560832 3.5 -50.23333 -10.13031 3.5 -50.08293 -10.13031 3.5 -50.08293 -9.979945 3.5 -50.23333 -9.979945 3.5 -51.03349 -9.979945 3.5 -51.03349 -10.13031 3.5 -51.18358 -9.979945 3.5 -51.18358 -10.13031 3.5 -51.18358 -12.5255 3.5 -51.03349 -12.5255 3.5 -51.18358 -12.67584 3.5 -51.03349 -12.67584 3.5 -48.23196 -12.67584 3.5 -48.23196 -12.5255 3.5 -48.38222 -12.5255 3.5 -48.38222 -12.67584 3.5 -48.38222 -16.87195 3.5 -48.23196 -16.87195 3.5 -48.38222 -17.02236 3.5 -48.23196 -17.02236 3.5 -46.83276 -17.02236 3.5 -46.83276 -16.87195 3.5 -46.98269 -16.87195 3.5 -46.98269 -17.02236 3.5 -46.98269 -17.62232 3.5 -46.83276 -17.62232 3.5 -46.98269 -17.77235 3.5 -46.83276 -17.77235 3.5 -44.27871 -17.77235 3.5 -44.27871 -17.62232 3.5 -44.12908 -17.77235 3.5 -44.12908 -17.62232 3.5 -44.12908 -12.67584 3.5 -44.27871 -12.67584 3.5 -44.12908 -12.5255 3.5 -44.27871 -12.5255 3.5 -3.172612 -12.67584 3.5 -3.172612 -12.5255 3.5 -3.022588 -12.67584 3.5 -3.022588 -12.5255 3.5 -3.172612 -18.07863 3.5 -3.022588 -18.07863 3.5 -3.172612 -18.22833 3.5 -3.022588 -18.22833 3.5 2.973329 -18.22833 3.5 2.973329 -18.07863 3.5 3.123772 -18.22833 3.5 3.123772 -18.07863 3.5 3.123772 -12.67584 3.5 2.973329 -12.67584 3.5 3.123772 -12.5255 3.5 2.973329 -12.5255 3.5 3.584232 -12.67584 3.5 3.584232 -12.5255 3.5 3.734255 -12.67584 3.5 3.734255 -12.5255 3.5 3.734255 -10.13031 3.5 3.584232 -10.13031 3.5 3.734255 -9.979945 3.5 3.584232 -9.979945 3.5 3.123772 -9.979945 3.5 3.123772 -10.13031 3.5 2.973329 -9.979945 3.5 2.973329 -10.13031 3.5 1.174855 -9.979945 3.5 1.174855 -10.13031 3.5 1.325082 -10.13031 3.5 1.325082 -9.979945 3.5 3.123772 -5.780987 3.5 2.973329 -5.780987 3.5 1.325082 -5.780987 3.5 1.174855 -5.780987 3.5 1.325082 -5.630585 3.5 1.174855 -5.630585 3.5 -0.2229733 -5.630585 3.5 -0.2229733 -5.780987 3.5 -0.07320594 -5.780987 3.5 -0.07320594 -5.630585 3.5 -0.07320594 -4.980666 3.5 -0.2229733 -4.980666 3.5 -0.07320594 -4.830264 3.5 -0.2229733 -4.830264 3.5 -3.022588 -4.830264 3.5 -3.022588 -4.980666 3.5</float_array>
          <technique_common>
            <accessor source="#Plane-mesh-positions-array" count="264" stride="3">
              <param name="X" type="float"/>
              <param name="Y" type="float"/>
              <param name="Z" type="float"/>
            </accessor>
          </technique_common>
        </source>
        <source id="Plane-mesh-normals">
          <float_array id="Plane-mesh-normals-array" count="1560">0 0 -1 0 0 -1 0 0 -1 0 0 -1 0 0 -1 0 0 -1 0 0 -1 0 0 1 0 0 -1 0 0 -1 0 0 -1 0 0 -1 0 0 -1 0 0 -1 0 0 -1 0 0 -1 0 0 -1 0 0 -1 0 0 -1 0 0 -1 0 0 -1 0 0 -1 0 0 -1 0 0 -1 0 0 -1 0 0 -1 0 0 -1 0 0 -1 0 0 -1 0 0 -1 0 0 -1 0 0 -1 0 0 -1 0 0 -1 0 0 -1 0 0 -1 0 0 -1 0 0 -1 0 0 -1 0 0 -1 0 0 -1 0 0 -1 0 0 -1 0 0 -1 0 0 -1 0 0 -1 0 0 -1 0 0 -1 0 0 -1 0 0 -1 0 0 -1 0 0 -1 0 0 -1 0 0 -1 0 0 -1 0 0 -1 0 0 -1 0 0 -1 0 0 -1 0 0 -1 0 0 -1 0 0 -1 0 0 -1 0 0 -1 0 0 -1 0 0 1 0 0 1 0 0 1 0 0 1 0 0 1 0 0 1 0 0 1 0 0 1 0 0 1 0 0 1 0 0 1 0 0 1 0 0 1 0 0 1 0 0 1 0 0 1 0 0 1 0 0 1 0 0 1 0 0 1 0 0 1 0 0 1 0 0 1 0 0 1 0 0 1 0 0 1 0 0 1 0 0 1 0 0 1 0 0 1 0 0 1 0 0 1 0 0 1 0 0 1 0 0 1 0 0 1 0 0 1 0 0 1 0 0 1 0 0 1 0 0 1 0 0 1 0 0 1 0 0 1 0 0 1 0 0 1 0 0 1 0 0 1 0 0 1 0 0 1 0 0 1 0 0 1 0 0 1 0 0 1 0 0 1 0 0 1 0 0 1 0 0 1 0 0 1 0 0 1 0 0 1 0 0 1 0 0 1 1 0 0 0 1 0 0 1 0 1 0 0 0 -1 0 -1 0 0 1 0 0 0 1 0 0 -1 0 -1 0 0 0 -1 0 0 1 0 0 -1 0 1 0 0 0 1 0 0 1 0 -1 0 0 -1 0 0 1 0 0 -1 0 0 0 1 0 0 -1 0 0 1 0 1 0 0 0 -1 0 -1 0 0 -1 0 0 1 0 0 1 0 0 0 -1 0 0 1 0 1 0 0 0 -1 0 0 1 0 0 1 0 -1 0 0 -1 0 0 0 -1 0 0 -1 0 1 0 0 0 1 0 0 1 0 1 0 0 -1 0 0 0 1 0 1 0 0 0 -1 0 1 0 0 0 -1 0 -1 0 0 0 -1 0 0 -1 0 0 -1 0 -1 0 0 0 1 0 1 0 0 -1 0 0 1 0 0 0 1 0 0 -1 0 1 0 0 0 1 0 -1 0 0 0 -1 0 1 0 0 -1 0 0 1 0 0 0 -1 0 0 -1 0 0 -1 0 0 -1 0 0 1 0 0 -1 0 -1 0 0 0 1 0 -1 0 0 0 1 0 1 0 0 0 1 0 0 1 0 -1 0 0 0 1 0 0 -1 0 0 1 0 -1 0 0 1 0 0 -1 0 0 0 -1 0 1 0 0 1 0 0 -1 0 0 0 -1 0 0 1 0 -1 0 0 1 0 0 0 -1 0 0 1 0 1 0 0 1 0 0 0 1 0 0 1 0 0 -1 0 1 0 0 -1 0 0 0 1 0 -1 0 0 1 0 0 -1 0 0 0 -1 0 -1 0 0 1 0 0 0 -1 0 -1 0 0 0 1 0 0 -1 0 0 -1 0 0 1 0 0 -1 0 1 0 0 0 1 0 -1 0 0 -1 0 0 0 -1 0 -1 0 0 0 1 0 1 0 0 -1 0 0 0 -1 0 -1 0 0 0 1 0 1 0 0 1 0 0 0 0 -1 0 0 -1 0 0 -1 0 0 -1 0 0 -1 0 0 -1 0 0 -1 0 0 1 0 0 -1 0 0 -1 0 0 -1 0 0 -1 0 0 -1 0 0 -1 0 0 -1 0 0 -1 0 0 -1 0 0 -1 0 0 -1 0 0 -1 0 0 -1 0 0 -1 0 0 -1 0 0 -1 0 0 -1 0 0 -1 0 0 -1 0 0 -1 0 0 -1 0 0 -1 0 0 -1 0 0 -1 0 0 -1 0 0 -1 0 0 -1 0 0 -1 0 0 -1 0 0 -1 0 0 -1 0 0 -1 0 0 -1 0 0 -1 0 0 -1 0 0 -1 0 0 -1 0 0 -1 0 0 -1 0 0 -1 0 0 -1 0 0 -1 0 0 -1 0 0 -1 0 0 -1 0 0 -1 0 0 -1 0 0 -1 0 0 -1 0 0 -1 0 0 -1 0 0 -1 0 0 -1 0 0 -1 0 0 -1 0 0 -1 0 0 -1 0 0 1 0 0 1 0 0 1 0 0 1 0 0 1 0 0 1 0 0 1 0 0 1 0 0 1 0 0 1 0 0 1 0 0 1 0 0 1 0 0 1 0 0 1 0 0 1 0 0 1 0 0 1 0 0 1 0 0 1 0 0 1 0 0 1 0 0 1 0 0 1 0 0 1 0 0 1 0 0 1 0 0 1 0 0 1 0 0 1 0 0 1 0 0 1 0 0 1 0 0 1 0 0 1 0 0 1 0 0 1 0 0 1 0 0 1 0 0 1 0 0 1 0 0 1 0 0 1 0 0 1 0 0 1 0 0 1 0 0 1 0 0 1 0 0 1 0 0 1 0 0 1 0 0 1 0 0 1 0 0 1 0 0 1 0 0 1 0 0 1 0 0 1 0 0 1 0 0 1 0 0 1 0 0 1 0 0 1 1 0 0 0 1 0 0 1 0 1 0 0 0 -1 0 -1 0 0 1 0 0 0 1 0 0 -1 0 -1 0 0 0 -1 0 0 1 0 0 -1 0 1 0 0 0 1 0 0 1 0 -1 0 0 -1 0 0 1 0 0 -1 0 0 0 1 0 0 -1 0 0 1 0 1 0 0 0 -1 0 -1 0 0 -1 0 0 1 0 0 1 0 0 0 -1 0 0 1 0 1 0 0 0 -1 0 0 1 0 0 1 0 -1 0 0 -1 0 0 0 -1 0 0 -1 0 1 0 0 0 1 0 0 1 0 1 0 0 -1 0 0 0 1 0 1 0 0 0 -1 0 1 0 0 0 -1 0 -1 0 0 0 -1 0 0 -1 0 0 -1 0 -1 0 0 0 1 0 1 0 0 -1 0 0 1 0 0 0 1 0 0 -1 0 1 0 0 0 1 0 -1 0 0 0 -1 0 1 0 0 -1 0 0 1 0 0 0 -1 0 0 -1 0 0 -1 0 0 -1 0 0 1 0 0 -1 0 -1 0 0 0 1 0 -1 0 0 0 1 0 1 0 0 0 1 0 0 1 0 -1 0 0 0 1 0 0 -1 0 0 1 0 -1 0 0 1 0 0 -1 0 0 0 -1 0 1 0 0 1 0 0 -1 0 0 0 -1 0 0 1 0 -1 0 0 1 0 0 0 -1 0 0 1 0 1 0 0 1 0 0 0 1 0 0 1 0 0 -1 0 1 0 0 -1 0 0 0 1 0 -1 0 0 1 0 0 -1 0 0 0 -1 0 -1 0 0 1 0 0 0 -1 0 -1 0 0 0 1 0 0 -1 0 0 -1 0 0 1 0 0 -1 0 1 0 0 0 1 0 -1 0 0 -1 0 0 0 -1 0 -1 0 0 0 1 0 1 0 0 -1 0 0 0 -1 0 -1 0 0 0 1 0 1 0 0 1 0 0</float_array>
          <technique_common>
            <accessor source="#Plane-mesh-normals-array" count="520" stride="3">
              <param name="X" type="float"/>
              <param name="Y" type="float"/>
              <param name="Z" type="float"/>
            </accessor>
          </technique_common>
        </source>
        <source id="Plane-mesh-map-0">
          <float_array id="Plane-mesh-map-0-array" count="3120">0 1 1 0.9173554 0 0.9173554 0 0.9173554 1 0 0 0 1 1 1 0.9173554 1 1 1 1 1 0.9173554 1 1 1 0.9173554 1 0.9173554 1 0.9173553 1 0.9173553 1 0.9173554 1 0.9173554 1 0.9173553 1 0.9173554 1 0.9173553 1 0.9173554 0 1 0 0.9173554 1 0.9173554 1 0.9173554 1 0.9173554 1 0.9173554 1 0.9173554 1 0.9173554 1 0.9173554 1 0.9173554 1 0.9173554 1 0.9173554 1 0.9173554 1 0.9173554 1 0.9173554 1 0.9173554 1 0.9173554 1 0.9173554 1 0.9173554 1 0.9173554 1 0.9173554 1 0.9173554 1 0.9173554 1 0.9173554 1 0.9173554 1 0.9173554 1 0.9173554 1 0.9173554 1 0.9173554 1 0.9173554 1 0.9173554 1 0.9173554 1 0.9173554 1 0.9173554 1 0.9173554 1 0.9173554 1 0.9173554 1 0.9173554 1 0.9173554 1 0.9173554 1 0.9173554 1 0.9173554 1 0.9173554 1 0.9173554 1 0.9173554 1 0.9173554 1 0.9173554 1 0.9173554 1 0.9173554 1 0.9173554 1 0.9173554 1 0.9173554 1 0.9173554 1 0.9173554 1 0.9173554 1 0.9173554 1 0.9173554 1 0.9173554 1 0.9173554 1 0.9173554 1 0.9173554 1 0.9173554 1 0.9173554 1 0.9173554 1 0.9173554 1 0.9173554 1 0.9173553 1 0.9173553 1 0.9173553 1 0.9173554 1 0.9173554 1 0.9173554 1 0.9173553 1 0.9173554 1 0.9173554 1 0.9173553 1 0.9173554 1 0.9173554 1 0.9173554 1 0.9173553 1 0.9173553 1 0.9173554 1 0.9173554 1 0.9173554 1 0.9173554 1 0.9173554 1 0.9173554 1 0.9173554 1 0.9173554 1 0.9173554 1 0.9173554 1 0.9173554 1 0.9173554 1 0.9173554 1 0.9173554 1 0.9173554 1 0.9173554 1 0.9173554 1 0.9173554 1 0.9173554 1 0.9173554 1 0.9173554 1 0.9173554 1 0.9173554 1 0.9173554 1 0.9173554 1 0.9173554 1 0.9173554 1 0.9173554 1 0.9173554 1 0.9173554 1 0.9173554 1 0.9173554 1 0.9173554 1 0.9173554 1 0.9173554 1 0.9173554 1 0.9173554 1 0.9173554 1 0.9173554 1 0.9173554 1 0.9173554 1 0.9173554 1 0.9173554 1 0.9173554 1 0.9173554 1 0.9173554 1 0.9173554 1 0.9173554 1 0.9173554 1 0.9173554 1 0.9173554 1 0.9173554 1 0.9173554 1 0.9173554 1 0.9173554 1 0.9173554 1 0.9173554 1 0.9173554 1 0.9173554 1 0.9173554 1 0.9173554 1 0.9173554 1 0.9173554 1 0.9173554 1 0.9173554 1 0.9173554 1 0.9173554 1 0.9173554 1 0.9173554 1 0.9173554 1 0.9173554 1 0.9173554 1 0.9173554 1 0.9173554 1 0.9173554 1 0.9173554 1 0.9173554 1 0.9173554 1 0.9173554 1 0.9173553 1 0.9173553 1 0.9173554 1 0.9173554 1 0.9173554 1 0.9173554 1 0.9173554 1 0.9173554 1 0.9173554 1 0.9173554 1 0.9173554 1 0.9173554 1 0.9173554 1 0 0 0.9173554 0 0 1 0.9173554 1 1 1 1 1 0.9173554 1 1 1 1 1 0.9173554 1 0.9173554 1 0.9173553 1 0.9173554 1 0.9173553 1 0.9173554 1 0.9173554 1 0.9173553 1 0.9173553 1 0.9173554 1 0.9173554 1 0.9173554 1 0.9173554 1 0.9173554 1 0.9173554 1 0.9173554 1 0.9173554 1 0.9173554 1 0.9173554 1 0.9173554 1 0.9173554 1 0.9173554 1 0.9173554 1 0.9173554 1 0.9173554 1 0.9173554 1 0.9173554 1 0.9173554 1 0.9173554 1 0.9173554 1 0.9173554 1 0.9173554 1 0.9173554 1 0.9173554 1 0.9173554 1 0.9173554 1 0.9173554 1 0.9173554 1 0.9173554 1 0.9173554 1 0.9173554 1 0.9173554 1 0.9173554 1 0.9173554 1 0.9173554 1 0.9173554 1 0.9173554 1 0.9173554 1 0.9173554 1 0.9173554 1 0.9173554 1 0.9173554 1 0.9173554 1 0.9173554 1 0.9173554 1 0.9173554 1 0.9173554 1 0.9173554 1 0.9173554 1 0.9173554 1 0.9173554 1 0.9173554 1 0.9173554 1 0.9173554 1 0.9173554 1 0.9173554 1 0.9173554 1 0.9173554 1 0.9173554 1 0.9173554 1 0.9173554 1 0.9173554 1 0.9173553 1 0.9173554 1 0.9173553 1 0.9173554 1 0.9173553 1 0.9173554 1 0.9173553 1 0.9173554 1 0.9173554 1 0.9173553 1 0.9173554 1 0.9173554 1 0.9173554 1 0.9173554 1 0.9173553 1 0.9173554 1 0.9173553 1 0.9173554 1 0.9173554 1 0.9173554 1 0.9173554 1 0.9173554 1 0.9173554 1 0.9173554 1 0.9173554 1 0.9173554 1 0.9173554 1 0.9173554 1 0.9173554 1 0.9173554 1 0.9173554 1 0.9173554 1 0.9173554 1 0.9173554 1 0.9173554 1 0.9173554 1 0.9173554 1 0.9173554 1 0.9173554 1 0.9173554 1 0.9173554 1 0.9173554 1 0.9173554 1 0.9173554 1 0.9173554 1 0.9173554 1 0.9173554 1 0.9173554 1 0.9173554 1 0.9173554 1 0.9173554 1 0.9173554 1 0.9173554 1 0.9173554 1 0.9173554 1 0.9173554 1 0.9173554 1 0.9173554 1 0.9173554 1 0.9173554 1 0.9173554 1 0.9173554 1 0.9173554 1 0.9173554 1 0.9173554 1 0.9173554 1 0.9173554 1 0.9173554 1 0.9173554 1 0.9173554 1 0.9173554 1 0.9173554 1 0.9173554 1 0.9173554 1 0.9173554 1 0.9173554 1 0.9173554 1 0.9173554 1 0.9173554 1 0.9173554 1 0.9173554 1 0.9173554 1 0.9173554 1 0.9173554 1 0.9173554 1 0.9173554 1 0.9173554 1 0.9173554 1 0.9173554 1 0.9173554 1 0.9173554 1 0.9173554 1 0.9173554 1 0.9173554 1 0.9173554 1 0.9173553 1 0.9173554 1 0.9173553 1 0.9173554 1 0.9173554 1 0.9173554 1 0.9173554 1 0.9173554 1 0.9173554 1 0.9173554 1 0.9173554 1 0.9173554 1 0.9173554 1 0.9173554 1 0.9173554 1 0.9173554 1 0.9173554 1 0.9173554 1 0.9173554 1 0.9173554 1 0.9173553 1 0.9173553 1 0.9173554 1 0.9173554 1 0.9173554 1 0.9173554 1 0.9173554 1 0.9173554 1 0.9173554 1 0.9173554 1 0.9173554 1 0.9173554 1 0.9173554 1 0.9173554 1 0.9173553 1 0.9173554 1 0.9173554 1 0.9173554 1 0.9173554 1 0.9173554 1 0.9173554 1 0.9173554 1 0.9173554 1 0.9173553 1 0.9173554 1 0.9173554 1 0.9173554 1 0.9173554 1 0.9173554 1 0.9173554 1 0.9173554 1 0.9173554 1 0.9173554 1 0.9173554 1 0.9173554 1 0.9173554 1 0.9173554 1 0.9173554 1 0.9173554 1 0.9173554 1 0.9173554 1 0.9173554 1 0.9173554 1 0.9173554 1 0.9173554 1 0.9173554 1 0.9173554 1 0.9173554 1 0.9173554 1 0.9173554 1 0.9173553 1 0.9173553 1 0.9173553 1 0.9173554 1 0.9173554 1 0.9173554 1 0.9173554 1 0.9173553 1 0.9173553 1 0.9173554 1 0.9173554 1 0.9173554 1 0.9173554 1 0.9173554 1 0.9173554 1 0.9173554 1 0.9173554 1 0.9173554 1 0.9173553 1 0.9173553 1 0.9173553 1 0.9173554 1 0.9173554 1 0.9173554 1 0.9173554 1 0.9173554 1 0.9173554 1 0.9173554 1 0.9173554 1 0.9173554 1 0.9173554 1 0.9173554 1 0.9173554 1 0.9173554 1 0.9173553 1 0.9173553 1 0.9173554 1 0.9173554 1 0.9173554 1 0.9173554 1 0.9173554 1 0.9173554 0 0 0 0.9173554 0 0.9173554 1 0.9173553 1 0.9173554 1 0.9173554 1 0.9173554 1 0.9173554 1 0.9173554 1 0 0 0 0 0 1 0.9173554 1 0.9173554 1 0.9173554 1 0.9173554 1 0.9173554 1 0.9173554 1 0.9173554 1 0.9173554 1 0.9173554 1 0.9173554 1 0.9173554 1 0.9173554 1 0.9173554 1 0.9173554 1 0.9173554 0 1 1 1 1 1 1 0.9173554 1 0.9173554 1 0.9173554 0 0.9173554 0 1 0 1 1 0.9173554 1 0.9173554 1 0.9173554 1 0.9173554 1 0.9173554 1 0.9173554 1 0.9173554 1 0.9173554 1 0.9173554 1 0.9173554 1 0 1 0 1 0.9173554 1 0.9173554 1 0.9173554 1 0.9173554 1 0.9173554 1 0.9173554 1 0.9173554 1 0.9173554 1 0.9173554 1 1 1 0.9173554 1 0.9173554 1 0.9173554 1 0.9173554 1 0.9173554 1 0.9173554 1 0.9173554 1 0.9173554 1 1 1 1 1 1 1 0.9173554 1 0.9173554 1 0.9173554 1 0.9173554 1 0.9173554 1 0.9173554 1 0.9173554 1 0.9173554 1 0.9173554 1 0.9173554 1 0.9173554 1 0.9173554 1 1 1 1 1 1 1 0.9173554 1 0.9173554 1 0.9173554 1 0.9173554 1 0.9173554 1 0.9173554 1 0.9173554 1 0.9173554 1 0.9173554 1 0.9173554 1 0.9173554 1 0.9173554 1 0.9173554 1 0.9173554 1 0.9173554 1 0.9173554 1 0.9173554 1 0.9173554 1 0.9173554 1 0.9173554 1 0.9173554 1 0.9173554 1 0.9173554 1 0.9173554 1 0.9173554 1 0.9173553 1 0.9173553 1 0.9173554 1 0.9173554 1 0.9173554 1 0.9173554 1 0.9173554 1 0.9173554 1 0.9173554 1 0.9173554 1 0.9173554 1 0.9173554 1 0.9173554 1 0.9173554 1 0.9173554 1 0.9173554 1 0.9173554 1 0.9173554 1 0.9173554 1 0.9173554 1 0.9173554 1 0.9173554 1 0.9173554 1 0.9173554 1 0.9173554 1 0.9173554 1 0.9173554 1 0.9173554 1 0.9173554 1 0.9173554 1 0.9173554 1 0.9173554 1 0.9173553 1 0.9173554 1 0.9173554 1 0.9173554 1 0.9173554 1 0.9173554 1 0.9173554 1 0.9173554 1 0.9173554 1 0.9173554 1 0.9173554 1 0.9173554 1 0.9173554 1 0.9173554 1 0.9173554 1 0.9173554 1 0.9173554 1 0.9173554 1 0.9173554 1 0.9173554 1 0.9173554 1 0.9173553 1 0.9173554 1 0.9173554 1 0.9173554 1 0.9173554 1 0.9173554 1 0.9173554 1 0.9173554 1 0.9173554 1 0.9173554 1 0.9173554 1 0.9173554 1 0.9173553 1 0.9173553 1 0.9173553 1 0.9173554 1 0.9173554 1 0.9173554 1 0.9173554 1 0.9173554 1 0.9173554 1 0.9173554 1 0.9173554 1 0.9173554 1 0.9173554 1 0.9173554 1 0.9173554 1 0.9173554 1 0.9173554 1 0.9173554 1 0.9173554 1 0.9173553 1 0.9173553 1 0.9173554 1 0.9173554 1 0.9173554 1 0.9173554 1 0.9173554 1 0.9173554 1 0.9173554 1 0.9173554 1 0.9173554 1 0.9173554 1 0.9173554 1 0.9173554 1 0.9173554 1 0.9173554 1 0.9173554 1 0.9173554 1 0.9173554 1 0.9173554 1 0.9173554 1 0.9173554 1 0.9173554 1 0.9173554 1 0.9173554 1 0.9173554 1 0.9173554 1 0.9173554 1 0.9173554 1 0.9173554 1 0.9173554 1 0.9173554 1 0.9173554 1 0.9173553 1 0.9173553 1 0.9173554 1 0.9173554 1 0.9173554 1 0.9173554 1 0.9173554 1 0.9173554 1 0.9173554 1 0.9173554 1 0.9173554 1 0.9173554 1 0.9173554 1 0.9173554 1 0.9173554 1 0.9173554 1 0.9173554 1 0.9173553 1 0.9173554 1 0.9173554 1 0.9173554 1 0.9173554 1 0.9173554 1 0.9173554 1 0.9173554 1 0.9173554 1 0.9173554 1 0.9173554 1 0.9173554 1 0.9173554 1 0.9173554 1 0.9173554 1 0.9173554 1 0.9173554 1 0.9173554 1 0.9173554 1 0.9173554 1 0.9173554 1 0.9173554 1 0.9173554 1 0.9173554 1 0.9173554 1 0.9173554 1 0.9173554 1 0.9173554 1 0.9173554 1 0.9173554 1 0.9173554 1 0.9173554 1 0.9173554 1 0.9173554 1 0.9173554 1 0.9173554 1 0.9173554 1 0.9173554 1 0.9173554 1 0.9173554 1 0.9173554 1 0.9173554 1 0.9173554 1 0.9173554 1 0.9173554 1 0.9173554 1 0.9173554 1 0.9173554 1 0.9173554 1 0.9173554 1 0.9173554 1 0.9173554 1 0.9173554 1 0.9173554 0 1 1 1 1 0.9173554 0 0.9173554 1 0.9173554 1 0 1 1 1 0.9173554 1 0.9173554 1 1 1 0.9173554 1 0.9173554 1 0.9173554 1 0.9173554 1 0.9173554 1 0.9173553 1 0.9173554 1 0.9173554 1 0.9173553 1 0.9173554 1 0.9173554 1 0.9173554 1 1 0 1 1 0.9173554 1 0.9173554 1 0.9173554 1 0.9173554 1 0.9173554 1 0.9173554 1 0.9173554 1 0.9173554 1 0.9173554 1 0.9173554 1 0.9173554 1 0.9173554 1 0.9173554 1 0.9173554 1 0.9173554 1 0.9173554 1 0.9173554 1 0.9173554 1 0.9173554 1 0.9173554 1 0.9173554 1 0.9173554 1 0.9173554 1 0.9173554 1 0.9173554 1 0.9173554 1 0.9173554 1 0.9173554 1 0.9173554 1 0.9173554 1 0.9173554 1 0.9173554 1 0.9173554 1 0.9173554 1 0.9173554 1 0.9173554 1 0.9173554 1 0.9173554 1 0.9173554 1 0.9173554 1 0.9173554 1 0.9173554 1 0.9173554 1 0.9173554 1 0.9173554 1 0.9173554 1 0.9173554 1 0.9173554 1 0.9173554 1 0.9173554 1 0.9173554 1 0.9173554 1 0.9173554 1 0.9173554 1 0.9173554 1 0.9173554 1 0.9173554 1 0.9173554 1 0.9173554 1 0.9173554 1 0.9173554 1 0.9173554 1 0.9173554 1 0.9173554 1 0.9173554 1 0.9173553 1 0.9173553 1 0.9173553 1 0.9173554 1 0.9173554 1 0.9173553 1 0.9173553 1 0.9173554 1 0.9173553 1 0.9173553 1 0.9173554 1 0.9173554 1 0.9173554 1 0.9173553 1 0.9173554 1 0.9173554 1 0.9173554 1 0.9173554 1 0.9173554 1 0.9173554 1 0.9173554 1 0.9173554 1 0.9173554 1 0.9173554 1 0.9173554 1 0.9173554 1 0.9173554 1 0.9173554 1 0.9173554 1 0.9173554 1 0.9173554 1 0.9173554 1 0.9173554 1 0.9173554 1 0.9173554 1 0.9173554 1 0.9173554 1 0.9173554 1 0.9173554 1 0.9173554 1 0.9173554 1 0.9173554 1 0.9173554 1 0.9173554 1 0.9173554 1 0.9173554 1 0.9173554 1 0.9173554 1 0.9173554 1 0.9173554 1 0.9173554 1 0.9173554 1 0.9173554 1 0.9173554 1 0.9173554 1 0.9173554 1 0.9173554 1 0.9173554 1 0.9173554 1 0.9173554 1 0.9173554 1 0.9173554 1 0.9173554 1 0.9173554 1 0.9173554 1 0.9173554 1 0.9173554 1 0.9173554 1 0.9173554 1 0.9173554 1 0.9173554 1 0.9173554 1 0.9173554 1 0.9173554 1 0.9173554 1 0.9173554 1 0.9173554 1 0.9173554 1 0.9173554 1 0.9173554 1 0.9173554 1 0.9173554 1 0.9173554 1 0.9173554 1 0.9173554 1 0.9173554 1 0.9173554 1 0.9173554 1 0.9173554 1 0.9173554 1 0.9173554 1 0.9173554 1 0.9173554 1 0.9173554 1 0.9173553 1 0.9173554 1 0.9173554 1 0.9173554 1 0.9173554 1 0.9173554 1 0.9173554 1 0.9173554 1 0.9173554 1 0.9173554 1 0.9173554 1 0.9173554 1 0 1 0.9173554 0 0.9173554 1 0.9173554 1 0.9173554 1 1 1 0.9173554 1 0.9173554 1 1 1 0.9173554 1 0.9173554 1 0.9173554 1 0.9173554 1 0.9173554 1 0.9173553 1 0.9173554 1 0.9173554 1 0.9173553 1 0.9173554 1 0.9173554 1 0.9173554 1 0.9173554 1 0.9173554 1 0.9173554 1 0.9173554 1 0.9173554 1 0.9173554 1 0.9173554 1 0.9173554 1 0.9173554 1 0.9173554 1 0.9173554 1 0.9173554 1 0.9173554 1 0.9173554 1 0.9173554 1 0.9173554 1 0.9173554 1 0.9173554 1 0.9173554 1 0.9173554 1 0.9173554 1 0.9173554 1 0.9173554 1 0.9173554 1 0.9173554 1 0.9173554 1 0.9173554 1 0.9173554 1 0.9173554 1 0.9173554 1 0.9173554 1 0.9173554 1 0.9173554 1 0.9173554 1 0.9173554 1 0.9173554 1 0.9173554 1 0.9173554 1 0.9173554 1 0.9173554 1 0.9173554 1 0.9173554 1 0.9173554 1 0.9173554 1 0.9173554 1 0.9173554 1 0.9173554 1 0.9173554 1 0.9173554 1 0.9173554 1 0.9173554 1 0.9173554 1 0.9173554 1 0.9173554 1 0.9173554 1 0.9173554 1 0.9173554 1 0.9173554 1 0.9173554 1 0.9173554 1 0.9173553 1 0.9173554 1 0.9173554 1 0.9173554 1 0.9173553 1 0.9173553 1 0.9173553 1 0.9173553 1 0.9173554 1 0.9173553 1 0.9173553 1 0.9173554 1 0.9173554 1 0.9173554 1 0.9173554 1 0.9173554 1 0.9173554 1 0.9173553 1 0.9173554 1 0.9173554 1 0.9173554 1 0.9173554 1 0.9173554 1 0.9173554 1 0.9173554 1 0.9173554 1 0.9173554 1 0.9173554 1 0.9173554 1 0.9173554 1 0.9173554 1 0.9173554 1 0.9173554 1 0.9173554 1 0.9173554 1 0.9173554 1 0.9173554 1 0.9173554 1 0.9173554 1 0.9173554 1 0.9173554 1 0.9173554 1 0.9173554 1 0.9173554 1 0.9173554 1 0.9173554 1 0.9173554 1 0.9173554 1 0.9173554 1 0.9173554 1 0.9173554 1 0.9173554 1 0.9173554 1 0.9173554 1 0.9173554 1 0.9173554 1 0.9173554 1 0.9173554 1 0.9173554 1 0.9173554 1 0.9173554 1 0.9173554 1 0.9173554 1 0.9173554 1 0.9173554 1 0.9173554 1 0.9173554 1 0.9173554 1 0.9173554 1 0.9173554 1 0.9173554 1 0.9173554 1 0.9173554 1 0.9173554 1 0.9173554 1 0.9173554 1 0.9173554 1 0.9173554 1 0.9173554 1 0.9173554 1 0.9173554 1 0.9173554 1 0.9173554 1 0.9173554 1 0.9173554 1 0.9173554 1 0.9173554 1 0.9173554 1 0.9173554 1 0.9173554 1 0.9173554 1 0.9173554 1 0.9173554 1 0.9173554 1 0.9173554 1 0.9173554 1 0.9173554 1 0.9173554 1 0.9173553 1 0.9173554 1 0.9173554 1 0.9173554 1 0.9173554 1 0.9173554 1 0.9173554 1 0.9173554 1 0.9173554 1 0.9173554 1 0.9173554 1 0.9173554 1 0.9173554 1 0.9173554 1 0.9173554 1 0.9173554 1 0.9173554 1 0.9173554 1 0.9173553 1 0.9173554 1 0.9173554 1 0.9173554 1 0.9173554 1 0.9173554 1 0.9173554 1 0.9173554 1 0.9173554 1 0.9173554 1 0.9173554 1 0.9173554 1 0.9173554 1 0.9173553 1 0.9173553 1 0.9173554 1 0.9173554 1 0.9173554 1 0.9173554 1 0.9173554 1 0.9173554 1 0.9173554 1 0.9173553 1 0.9173553 1 0.9173554 1 0.9173554 1 0.9173554 1 0.9173554 1 0.9173554 1 0.9173554 1 0.9173554 1 0.9173554 1 0.9173554 1 0.9173554 1 0.9173554 1 0.9173554 1 0.9173554 1 0.9173554 1 0.9173554 1 0.9173554 1 0.9173554 1 0.9173554 1 0.9173554 1 0.9173554 1 0.9173554 1 0.9173554 1 0.9173554 1 0.9173554 1 0.9173554 1 0.9173553 1 0.9173553 1 0.9173553 1 0.9173554 1 0.9173554 1 0.9173554 1 0.9173554 1 0.9173554 1 0.9173553 1 0.9173554 1 0.9173554 1 0.9173554 1 0.9173554 1 0.9173554 1 0.9173554 1 0.9173554 1 0.9173554 1 0.9173554 1 0.9173553 1 0.9173553 1 0.9173553 1 0.9173554 1 0.9173554 1 0.9173554 1 0.9173554 1 0.9173554 1 0.9173554 1 0.9173554 1 0.9173554 1 0.9173554 1 0.9173554 1 0.9173554 1 0.9173554 1 0.9173554 1 0.9173554 1 0.9173553 1 0.9173554 1 0.9173554 1 0.9173554 1 0.9173554 1 0.9173554 1 0.9173554 0 0 0 0 0 0.9173554 1 0.9173553 1 0.9173553 1 0.9173554 1 0.9173554 1 0.9173554 1 0.9173554 1 0 1 0 0 0 1 0.9173554 1 0.9173554 1 0.9173554 1 0.9173554 1 0.9173554 1 0.9173554 1 0.9173554 1 0.9173554 1 0.9173554 1 0.9173554 1 0.9173554 1 0.9173554 1 0.9173554 1 0.9173554 1 0.9173554 0 1 0 1 1 1 1 0.9173554 1 0.9173554 1 0.9173554 0 0.9173554 0 0.9173554 0 1 1 0.9173554 1 0.9173554 1 0.9173554 1 0.9173554 1 0.9173554 1 0.9173554 1 0.9173554 1 0.9173554 1 0.9173554 1 0.9173554 1 0.9173554 1 0 1 0.9173554 1 0.9173554 1 0.9173554 1 0.9173554 1 0.9173554 1 0.9173554 1 0.9173554 1 0.9173554 1 0.9173554 1 1 1 1 1 0.9173554 1 0.9173554 1 0.9173554 1 0.9173554 1 0.9173554 1 0.9173554 1 0.9173554 1 1 1 1 1 1 1 0.9173554 1 0.9173554 1 0.9173554 1 0.9173554 1 0.9173554 1 0.9173554 1 0.9173554 1 0.9173554 1 0.9173554 1 0.9173554 1 0.9173554 1 0.9173554 1 1 1 1 1 1 1 0.9173554 1 0.9173554 1 0.9173554 1 0.9173554 1 0.9173554 1 0.9173554 1 0.9173554 1 0.9173554 1 0.9173554 1 0.9173554 1 0.9173554 1 0.9173554 1 0.9173554 1 0.9173554 1 0.9173554 1 0.9173554 1 0.9173554 1 0.9173554 1 0.9173554 1 0.9173554 1 0.9173554 1 0.9173554 1 0.9173554 1 0.9173554 1 0.9173554 1 0.9173554 1 0.9173553 1 0.9173554 1 0.9173554 1 0.9173554 1 0.9173554 1 0.9173554 1 0.9173554 1 0.9173554 1 0.9173554 1 0.9173554 1 0.9173554 1 0.9173554 1 0.9173554 1 0.9173554 1 0.9173554 1 0.9173554 1 0.9173554 1 0.9173554 1 0.9173554 1 0.9173554 1 0.9173554 1 0.9173554 1 0.9173554 1 0.9173554 1 0.9173554 1 0.9173554 1 0.9173554 1 0.9173554 1 0.9173554 1 0.9173554 1 0.9173554 1 0.9173553 1 0.9173553 1 0.9173554 1 0.9173554 1 0.9173554 1 0.9173554 1 0.9173554 1 0.9173554 1 0.9173554 1 0.9173554 1 0.9173554 1 0.9173554 1 0.9173554 1 0.9173554 1 0.9173554 1 0.9173554 1 0.9173554 1 0.9173554 1 0.9173554 1 0.9173554 1 0.9173554 1 0.9173553 1 0.9173553 1 0.9173554 1 0.9173554 1 0.9173554 1 0.9173554 1 0.9173554 1 0.9173554 1 0.9173554 1 0.9173554 1 0.9173554 1 0.9173554 1 0.9173553 1 0.9173553 1 0.9173553 1 0.9173554 1 0.9173554 1 0.9173554 1 0.9173554 1 0.9173554 1 0.9173554 1 0.9173554 1 0.9173554 1 0.9173554 1 0.9173554 1 0.9173554 1 0.9173554 1 0.9173554 1 0.9173554 1 0.9173554 1 0.9173554 1 0.9173554 1 0.9173553 1 0.9173554 1 0.9173554 1 0.9173554 1 0.9173554 1 0.9173554 1 0.9173554 1 0.9173554 1 0.9173554 1 0.9173554 1 0.9173554 1 0.9173554 1 0.9173554 1 0.9173554 1 0.9173554 1 0.9173554 1 0.9173554 1 0.9173554 1 0.9173554 1 0.9173554 1 0.9173554 1 0.9173554 1 0.9173554 1 0.9173554 1 0.9173554 1 0.9173554 1 0.9173554 1 0.9173554 1 0.9173554 1 0.9173554 1 0.9173554 1 0.9173554 1 0.9173554 1 0.9173553 1 0.9173554 1 0.9173554 1 0.9173554 1 0.9173554 1 0.9173554 1 0.9173554 1 0.9173554 1 0.9173554 1 0.9173554 1 0.9173554 1 0.9173554 1 0.9173554 1 0.9173554 1 0.9173554 1 0.9173554 1 0.9173553 1 0.9173553 1 0.9173554 1 0.9173554 1 0.9173554 1 0.9173554 1 0.9173554 1 0.9173554 1 0.9173554 1 0.9173554 1 0.9173554 1 0.9173554 1 0.9173554 1 0.9173554 1 0.9173554 1 0.9173554 1 0.9173554 1 0.9173554 1 0.9173554 1 0.9173554 1 0.9173554 1 0.9173554 1 0.9173554 1 0.9173554 1 0.9173554 1 0.9173554 1 0.9173554 1 0.9173554 1 0.9173554 1 0.9173554 1 0.9173554 1 0.9173554 1 0.9173554 1 0.9173554 1 0.9173554 1 0.9173554 1 0.9173554 1 0.9173554 1 0.9173554 1 0.9173554 1 0.9173554 1 0.9173554 1 0.9173554 1 0.9173554 1 0.9173554 1 0.9173554 1 0.9173554 1 0.9173554 1 0.9173554 1 0.9173554 1 0.9173554 1 0.9173554 1 0.9173554 1 0.9173554</float_array>
          <technique_common>
            <accessor source="#Plane-mesh-map-0-array" count="1560" stride="2">
              <param name="S" type="float"/>
              <param name="T" type="float"/>
            </accessor>
          </technique_common>
        </source>
        <vertices id="Plane-mesh-vertices">
          <input semantic="POSITION" source="#Plane-mesh-positions"/>
        </vertices>
        <triangles count="520">
          <input semantic="VERTEX" source="#Plane-mesh-vertices" offset="0"/>
          <input semantic="NORMAL" source="#Plane-mesh-normals" offset="1"/>
          <input semantic="TEXCOORD" source="#Plane-mesh-map-0" offset="2" set="0"/>
          <p>2 0 0 5 0 1 4 0 2 4 1 3 1 1 4 0 1 5 6 2 6 9 2 7 8 2 8 8 3 9 5 3 10 3 3 11 10 4 12 14 4 13 15 4 14 12 5 15 9 5 16 7 5 17 15 6 18 17 6 19 16 6 20 135 7 21 137 7 22 132 7 23 18 8 24 14 8 25 11 8 26 20 9 27 23 9 28 22 9 29 22 10 30 11 10 31 10 10 32 24 11 33 23 11 34 21 11 35 26 12 36 25 12 37 24 12 38 28 13 39 26 13 40 24 13 41 30 14 42 29 14 43 28 14 44 32 15 45 30 15 46 28 15 47 34 16 48 33 16 49 32 16 50 37 17 51 33 17 52 35 17 53 39 18 54 36 18 55 37 18 56 41 19 57 36 19 58 38 19 59 43 20 60 40 20 61 41 20 62 44 21 63 43 21 64 41 21 65 46 22 66 45 22 67 44 22 68 48 23 69 51 23 70 50 23 71 50 24 72 46 24 73 44 24 74 52 25 75 51 25 76 49 25 77 54 26 78 53 26 79 52 26 80 56 27 81 54 27 82 52 27 83 58 28 84 57 28 85 56 28 86 60 29 87 63 29 88 62 29 89 62 30 90 58 30 91 56 30 92 64 31 93 63 31 94 61 31 95 66 32 96 65 32 97 64 32 98 68 33 99 71 33 100 70 33 101 70 34 102 66 34 103 64 34 104 72 35 105 71 35 106 69 35 107 74 36 108 73 36 109 72 36 110 76 37 111 74 37 112 72 37 113 78 38 114 77 38 115 76 38 116 80 39 117 78 39 118 76 39 119 82 40 120 81 40 121 80 40 122 85 41 123 81 41 124 83 41 125 87 42 126 84 42 127 85 42 128 89 43 129 84 43 130 86 43 131 91 44 132 88 44 133 89 44 134 92 45 135 91 45 136 89 45 137 94 46 138 93 46 139 92 46 140 96 47 141 94 47 142 92 47 143 98 48 144 97 48 145 96 48 146 101 49 147 97 49 148 99 49 149 103 50 150 100 50 151 101 50 152 104 51 153 103 51 154 101 51 155 106 52 156 105 52 157 104 52 158 108 53 159 106 53 160 104 53 161 110 54 162 109 54 163 108 54 164 112 55 165 115 55 166 114 55 167 114 56 168 111 56 169 110 56 170 118 57 171 115 57 172 113 57 173 117 58 174 109 58 175 111 58 176 120 59 177 119 59 178 118 59 179 122 60 180 125 60 181 124 60 182 124 61 183 120 61 184 118 61 185 126 62 186 125 62 187 123 62 188 128 63 189 127 63 190 126 63 191 130 64 192 128 64 193 126 64 194 134 65 195 132 65 196 133 65 197 141 66 198 139 66 199 140 66 200 135 67 201 140 67 202 136 67 203 145 68 204 143 68 205 148 68 206 141 69 207 144 69 208 138 69 209 147 70 210 148 70 211 149 70 212 145 71 213 151 71 214 142 71 215 155 72 216 153 72 217 154 72 218 142 73 219 154 73 220 143 73 221 155 74 222 157 74 223 152 74 224 156 75 225 159 75 226 157 75 227 159 76 228 161 76 229 157 76 230 160 77 231 163 77 232 161 77 233 163 78 234 165 78 235 161 78 236 164 79 237 167 79 238 165 79 239 164 80 240 169 80 241 166 80 242 168 81 243 171 81 244 169 81 245 168 82 246 173 82 247 170 82 248 172 83 249 175 83 250 173 83 251 175 84 252 177 84 253 173 84 254 176 85 255 179 85 256 177 85 257 183 86 258 181 86 259 182 86 260 179 87 261 182 87 262 177 87 263 183 88 264 185 88 265 180 88 266 184 89 267 187 89 268 185 89 269 187 90 270 189 90 271 185 90 272 188 91 273 191 91 274 189 91 275 195 92 276 193 92 277 194 92 278 191 93 279 194 93 280 189 93 281 195 94 282 197 94 283 192 94 284 196 95 285 199 95 286 197 95 287 203 96 288 201 96 289 202 96 290 199 97 291 202 97 292 197 97 293 203 98 294 205 98 295 200 98 296 204 99 297 207 99 298 205 99 299 207 100 300 209 100 301 205 100 302 208 101 303 211 101 304 209 101 305 211 102 306 213 102 307 209 102 308 212 103 309 215 103 310 213 103 311 212 104 312 217 104 313 214 104 314 216 105 315 219 105 316 217 105 317 216 106 318 221 106 319 218 106 320 220 107 321 223 107 322 221 107 323 223 108 324 225 108 325 221 108 326 224 109 327 227 109 328 225 109 329 227 110 330 229 110 331 225 110 332 228 111 333 231 111 334 229 111 335 228 112 336 233 112 337 230 112 338 232 113 339 235 113 340 233 113 341 235 114 342 237 114 343 233 114 344 236 115 345 239 115 346 237 115 347 239 116 348 241 116 349 237 116 350 240 117 351 243 117 352 241 117 353 247 118 354 245 118 355 246 118 356 242 119 357 246 119 358 243 119 359 247 120 360 251 120 361 244 120 362 240 121 363 249 121 364 242 121 365 250 122 366 253 122 367 251 122 368 257 123 369 255 123 370 256 123 371 253 124 372 256 124 373 251 124 374 257 125 375 259 125 376 254 125 377 258 126 378 261 126 379 259 126 380 261 127 381 263 127 382 259 127 383 60 128 384 192 128 385 61 128 386 26 129 387 158 129 388 27 129 389 56 130 390 194 130 391 62 130 392 129 131 393 258 131 394 127 131 395 95 132 396 224 132 397 93 132 398 130 133 399 262 133 400 131 133 401 27 134 402 156 134 403 25 134 404 62 135 405 193 135 406 60 135 407 126 136 408 263 136 409 130 136 410 92 137 411 229 137 412 96 137 413 63 138 414 191 138 415 58 138 416 131 139 417 261 139 418 128 139 419 24 140 420 161 140 421 28 140 422 97 141 423 227 141 424 94 141 425 29 142 426 159 142 427 26 142 428 98 143 429 230 143 430 99 143 431 30 144 432 162 144 433 31 144 434 96 145 435 231 145 436 98 145 437 61 146 438 197 146 439 64 146 440 65 147 441 195 147 442 63 147 443 31 148 444 160 148 445 29 148 446 66 149 447 198 149 448 67 149 449 99 150 450 233 150 451 101 150 452 28 151 453 165 151 454 32 151 455 100 152 456 228 152 457 97 152 458 67 153 459 196 153 460 65 153 461 33 154 462 163 154 463 30 154 464 103 155 465 234 155 466 102 155 467 68 156 468 200 156 469 69 156 470 34 157 471 166 157 472 35 157 473 64 158 474 202 158 475 70 158 476 32 159 477 167 159 478 34 159 479 102 160 480 232 160 481 100 160 482 0 161 483 132 161 484 4 161 485 70 162 486 201 162 487 68 162 488 101 163 489 237 163 490 104 163 491 1 164 492 133 164 493 0 164 494 71 165 495 199 165 496 66 165 497 35 166 498 169 166 499 37 166 500 105 167 501 235 167 502 103 167 503 36 168 504 164 168 505 33 168 506 106 169 507 238 169 508 107 169 509 2 170 510 136 170 511 3 170 512 39 171 513 170 171 514 38 171 515 4 172 516 137 172 517 2 172 518 69 173 519 205 173 520 72 173 521 37 174 522 171 174 523 39 174 524 107 175 525 236 175 526 105 175 527 5 176 528 134 176 529 1 176 530 73 177 531 203 177 532 71 177 533 74 178 534 206 178 535 75 178 536 104 179 537 241 179 538 108 179 539 6 180 540 138 180 541 7 180 542 38 181 543 173 181 544 41 181 545 109 182 546 239 182 547 106 182 548 3 183 549 140 183 550 8 183 551 75 184 552 204 184 553 73 184 554 40 185 555 168 185 556 36 185 557 43 186 558 174 186 559 42 186 560 108 187 561 243 187 562 110 187 563 8 188 564 139 188 565 6 188 566 72 189 567 209 189 568 76 189 569 9 190 570 135 190 571 5 190 572 77 191 573 207 191 574 74 191 575 42 192 576 172 192 577 40 192 578 112 193 579 244 193 580 113 193 581 78 194 582 210 194 583 79 194 584 110 195 585 246 195 586 114 195 587 41 196 588 177 196 589 44 196 590 7 197 591 144 197 592 12 197 593 79 198 594 208 198 595 77 198 596 45 199 597 175 199 598 43 199 599 114 200 600 245 200 601 112 200 602 46 201 603 178 201 604 47 201 605 115 202 606 242 202 607 111 202 608 76 203 609 213 203 610 80 203 611 13 204 612 141 204 613 9 204 614 81 205 615 211 205 616 78 205 617 47 206 618 176 206 619 45 206 620 117 207 621 248 207 622 116 207 623 12 208 624 146 208 625 13 208 626 82 209 627 214 209 628 83 209 629 48 210 630 180 210 631 49 210 632 14 211 633 147 211 634 17 211 635 80 212 636 215 212 637 82 212 638 44 213 639 182 213 640 50 213 641 113 214 642 251 214 643 118 214 644 15 215 645 143 215 646 10 215 647 119 216 648 247 216 649 115 216 650 50 217 651 181 217 652 48 217 653 111 218 654 249 218 655 117 218 656 16 219 657 148 219 658 15 219 659 83 220 660 217 220 661 85 220 662 51 221 663 179 221 664 46 221 665 116 222 666 240 222 667 109 222 668 84 223 669 212 223 670 81 223 671 120 224 672 252 224 673 121 224 674 17 225 675 149 225 676 16 225 677 87 226 678 218 226 679 86 226 680 18 227 681 150 227 682 19 227 683 85 228 684 219 228 685 87 228 686 49 229 687 185 229 688 52 229 689 121 230 690 250 230 691 119 230 692 11 231 693 151 231 694 18 231 695 53 232 696 183 232 697 51 232 698 122 233 699 254 233 700 123 233 701 19 234 702 145 234 703 14 234 704 54 235 705 186 235 706 55 235 707 118 236 708 256 236 709 124 236 710 20 237 711 152 237 712 21 237 713 86 238 714 221 238 715 89 238 716 10 239 717 154 239 718 22 239 719 88 240 720 216 240 721 84 240 722 55 241 723 184 241 724 53 241 725 124 242 726 255 242 727 122 242 728 91 243 729 222 243 730 90 243 731 125 244 732 253 244 733 120 244 734 22 245 735 153 245 736 20 245 737 52 246 738 189 246 739 56 246 740 23 247 741 142 247 742 11 247 743 90 248 744 220 248 745 88 248 746 57 249 747 187 249 748 54 249 749 58 250 750 190 250 751 59 250 752 123 251 753 259 251 754 126 251 755 89 252 756 225 252 757 92 252 758 127 253 759 257 253 760 125 253 761 21 254 762 157 254 763 24 254 764 93 255 765 223 255 766 91 255 767 59 256 768 188 256 769 57 256 770 128 257 771 260 257 772 129 257 773 25 258 774 155 258 775 23 258 776 94 259 777 226 259 778 95 259 779 2 260 780 3 260 781 5 260 782 4 261 783 5 261 784 1 261 785 6 262 786 7 262 787 9 262 788 8 263 789 9 263 790 5 263 791 10 264 792 11 264 793 14 264 794 12 265 795 13 265 796 9 265 797 15 266 798 14 266 799 17 266 800 135 267 801 136 267 802 137 267 803 18 268 804 19 268 805 14 268 806 20 269 807 21 269 808 23 269 809 22 270 810 23 270 811 11 270 812 24 271 813 25 271 814 23 271 815 26 272 816 27 272 817 25 272 818 28 273 819 29 273 820 26 273 821 30 274 822 31 274 823 29 274 824 32 275 825 33 275 826 30 275 827 34 276 828 35 276 829 33 276 830 37 277 831 36 277 832 33 277 833 39 278 834 38 278 835 36 278 836 41 279 837 40 279 838 36 279 839 43 280 840 42 280 841 40 280 842 44 281 843 45 281 844 43 281 845 46 282 846 47 282 847 45 282 848 48 283 849 49 283 850 51 283 851 50 284 852 51 284 853 46 284 854 52 285 855 53 285 856 51 285 857 54 286 858 55 286 859 53 286 860 56 287 861 57 287 862 54 287 863 58 288 864 59 288 865 57 288 866 60 289 867 61 289 868 63 289 869 62 290 870 63 290 871 58 290 872 64 291 873 65 291 874 63 291 875 66 292 876 67 292 877 65 292 878 68 293 879 69 293 880 71 293 881 70 294 882 71 294 883 66 294 884 72 295 885 73 295 886 71 295 887 74 296 888 75 296 889 73 296 890 76 297 891 77 297 892 74 297 893 78 298 894 79 298 895 77 298 896 80 299 897 81 299 898 78 299 899 82 300 900 83 300 901 81 300 902 85 301 903 84 301 904 81 301 905 87 302 906 86 302 907 84 302 908 89 303 909 88 303 910 84 303 911 91 304 912 90 304 913 88 304 914 92 305 915 93 305 916 91 305 917 94 306 918 95 306 919 93 306 920 96 307 921 97 307 922 94 307 923 98 308 924 99 308 925 97 308 926 101 309 927 100 309 928 97 309 929 103 310 930 102 310 931 100 310 932 104 311 933 105 311 934 103 311 935 106 312 936 107 312 937 105 312 938 108 313 939 109 313 940 106 313 941 110 314 942 111 314 943 109 314 944 112 315 945 113 315 946 115 315 947 114 316 948 115 316 949 111 316 950 118 317 951 119 317 952 115 317 953 117 318 954 116 318 955 109 318 956 120 319 957 121 319 958 119 319 959 122 320 960 123 320 961 125 320 962 124 321 963 125 321 964 120 321 965 126 322 966 127 322 967 125 322 968 128 323 969 129 323 970 127 323 971 130 324 972 131 324 973 128 324 974 134 325 975 135 325 976 132 325 977 141 326 978 138 326 979 139 326 980 135 327 981 141 327 982 140 327 983 145 328 984 142 328 985 143 328 986 141 329 987 146 329 988 144 329 989 147 330 990 145 330 991 148 330 992 145 331 993 150 331 994 151 331 995 155 332 996 152 332 997 153 332 998 142 333 999 155 333 1000 154 333 1001 155 334 1002 156 334 1003 157 334 1004 156 335 1005 158 335 1006 159 335 1007 159 336 1008 160 336 1009 161 336 1010 160 337 1011 162 337 1012 163 337 1013 163 338 1014 164 338 1015 165 338 1016 164 339 1017 166 339 1018 167 339 1019 164 340 1020 168 340 1021 169 340 1022 168 341 1023 170 341 1024 171 341 1025 168 342 1026 172 342 1027 173 342 1028 172 343 1029 174 343 1030 175 343 1031 175 344 1032 176 344 1033 177 344 1034 176 345 1035 178 345 1036 179 345 1037 183 346 1038 180 346 1039 181 346 1040 179 347 1041 183 347 1042 182 347 1043 183 348 1044 184 348 1045 185 348 1046 184 349 1047 186 349 1048 187 349 1049 187 350 1050 188 350 1051 189 350 1052 188 351 1053 190 351 1054 191 351 1055 195 352 1056 192 352 1057 193 352 1058 191 353 1059 195 353 1060 194 353 1061 195 354 1062 196 354 1063 197 354 1064 196 355 1065 198 355 1066 199 355 1067 203 356 1068 200 356 1069 201 356 1070 199 357 1071 203 357 1072 202 357 1073 203 358 1074 204 358 1075 205 358 1076 204 359 1077 206 359 1078 207 359 1079 207 360 1080 208 360 1081 209 360 1082 208 361 1083 210 361 1084 211 361 1085 211 362 1086 212 362 1087 213 362 1088 212 363 1089 214 363 1090 215 363 1091 212 364 1092 216 364 1093 217 364 1094 216 365 1095 218 365 1096 219 365 1097 216 366 1098 220 366 1099 221 366 1100 220 367 1101 222 367 1102 223 367 1103 223 368 1104 224 368 1105 225 368 1106 224 369 1107 226 369 1108 227 369 1109 227 370 1110 228 370 1111 229 370 1112 228 371 1113 230 371 1114 231 371 1115 228 372 1116 232 372 1117 233 372 1118 232 373 1119 234 373 1120 235 373 1121 235 374 1122 236 374 1123 237 374 1124 236 375 1125 238 375 1126 239 375 1127 239 376 1128 240 376 1129 241 376 1130 240 377 1131 242 377 1132 243 377 1133 247 378 1134 244 378 1135 245 378 1136 242 379 1137 247 379 1138 246 379 1139 247 380 1140 250 380 1141 251 380 1142 240 381 1143 248 381 1144 249 381 1145 250 382 1146 252 382 1147 253 382 1148 257 383 1149 254 383 1150 255 383 1151 253 384 1152 257 384 1153 256 384 1154 257 385 1155 258 385 1156 259 385 1157 258 386 1158 260 386 1159 261 386 1160 261 387 1161 262 387 1162 263 387 1163 60 388 1164 193 388 1165 192 388 1166 26 389 1167 159 389 1168 158 389 1169 56 390 1170 189 390 1171 194 390 1172 129 391 1173 260 391 1174 258 391 1175 95 392 1176 226 392 1177 224 392 1178 130 393 1179 263 393 1180 262 393 1181 27 394 1182 158 394 1183 156 394 1184 62 395 1185 194 395 1186 193 395 1187 126 396 1188 259 396 1189 263 396 1190 92 397 1191 225 397 1192 229 397 1193 63 398 1194 195 398 1195 191 398 1196 131 399 1197 262 399 1198 261 399 1199 24 400 1200 157 400 1201 161 400 1202 97 401 1203 228 401 1204 227 401 1205 29 402 1206 160 402 1207 159 402 1208 98 403 1209 231 403 1210 230 403 1211 30 404 1212 163 404 1213 162 404 1214 96 405 1215 229 405 1216 231 405 1217 61 406 1218 192 406 1219 197 406 1220 65 407 1221 196 407 1222 195 407 1223 31 408 1224 162 408 1225 160 408 1226 66 409 1227 199 409 1228 198 409 1229 99 410 1230 230 410 1231 233 410 1232 28 411 1233 161 411 1234 165 411 1235 100 412 1236 232 412 1237 228 412 1238 67 413 1239 198 413 1240 196 413 1241 33 414 1242 164 414 1243 163 414 1244 103 415 1245 235 415 1246 234 415 1247 68 416 1248 201 416 1249 200 416 1250 34 417 1251 167 417 1252 166 417 1253 64 418 1254 197 418 1255 202 418 1256 32 419 1257 165 419 1258 167 419 1259 102 420 1260 234 420 1261 232 420 1262 0 421 1263 133 421 1264 132 421 1265 70 422 1266 202 422 1267 201 422 1268 101 423 1269 233 423 1270 237 423 1271 1 424 1272 134 424 1273 133 424 1274 71 425 1275 203 425 1276 199 425 1277 35 426 1278 166 426 1279 169 426 1280 105 427 1281 236 427 1282 235 427 1283 36 428 1284 168 428 1285 164 428 1286 106 429 1287 239 429 1288 238 429 1289 2 430 1290 137 430 1291 136 430 1292 39 431 1293 171 431 1294 170 431 1295 4 432 1296 132 432 1297 137 432 1298 69 433 1299 200 433 1300 205 433 1301 37 434 1302 169 434 1303 171 434 1304 107 435 1305 238 435 1306 236 435 1307 5 436 1308 135 436 1309 134 436 1310 73 437 1311 204 437 1312 203 437 1313 74 438 1314 207 438 1315 206 438 1316 104 439 1317 237 439 1318 241 439 1319 6 440 1320 139 440 1321 138 440 1322 38 441 1323 170 441 1324 173 441 1325 109 442 1326 240 442 1327 239 442 1328 3 443 1329 136 443 1330 140 443 1331 75 444 1332 206 444 1333 204 444 1334 40 445 1335 172 445 1336 168 445 1337 43 446 1338 175 446 1339 174 446 1340 108 447 1341 241 447 1342 243 447 1343 8 448 1344 140 448 1345 139 448 1346 72 449 1347 205 449 1348 209 449 1349 9 450 1350 141 450 1351 135 450 1352 77 451 1353 208 451 1354 207 451 1355 42 452 1356 174 452 1357 172 452 1358 112 453 1359 245 453 1360 244 453 1361 78 454 1362 211 454 1363 210 454 1364 110 455 1365 243 455 1366 246 455 1367 41 456 1368 173 456 1369 177 456 1370 7 457 1371 138 457 1372 144 457 1373 79 458 1374 210 458 1375 208 458 1376 45 459 1377 176 459 1378 175 459 1379 114 460 1380 246 460 1381 245 460 1382 46 461 1383 179 461 1384 178 461 1385 115 462 1386 247 462 1387 242 462 1388 76 463 1389 209 463 1390 213 463 1391 13 464 1392 146 464 1393 141 464 1394 81 465 1395 212 465 1396 211 465 1397 47 466 1398 178 466 1399 176 466 1400 117 467 1401 249 467 1402 248 467 1403 12 468 1404 144 468 1405 146 468 1406 82 469 1407 215 469 1408 214 469 1409 48 470 1410 181 470 1411 180 470 1412 14 471 1413 145 471 1414 147 471 1415 80 472 1416 213 472 1417 215 472 1418 44 473 1419 177 473 1420 182 473 1421 113 474 1422 244 474 1423 251 474 1424 15 475 1425 148 475 1426 143 475 1427 119 476 1428 250 476 1429 247 476 1430 50 477 1431 182 477 1432 181 477 1433 111 478 1434 242 478 1435 249 478 1436 16 479 1437 149 479 1438 148 479 1439 83 480 1440 214 480 1441 217 480 1442 51 481 1443 183 481 1444 179 481 1445 116 482 1446 248 482 1447 240 482 1448 84 483 1449 216 483 1450 212 483 1451 120 484 1452 253 484 1453 252 484 1454 17 485 1455 147 485 1456 149 485 1457 87 486 1458 219 486 1459 218 486 1460 18 487 1461 151 487 1462 150 487 1463 85 488 1464 217 488 1465 219 488 1466 49 489 1467 180 489 1468 185 489 1469 121 490 1470 252 490 1471 250 490 1472 11 491 1473 142 491 1474 151 491 1475 53 492 1476 184 492 1477 183 492 1478 122 493 1479 255 493 1480 254 493 1481 19 494 1482 150 494 1483 145 494 1484 54 495 1485 187 495 1486 186 495 1487 118 496 1488 251 496 1489 256 496 1490 20 497 1491 153 497 1492 152 497 1493 86 498 1494 218 498 1495 221 498 1496 10 499 1497 143 499 1498 154 499 1499 88 500 1500 220 500 1501 216 500 1502 55 501 1503 186 501 1504 184 501 1505 124 502 1506 256 502 1507 255 502 1508 91 503 1509 223 503 1510 222 503 1511 125 504 1512 257 504 1513 253 504 1514 22 505 1515 154 505 1516 153 505 1517 52 506 1518 185 506 1519 189 506 1520 23 507 1521 155 507 1522 142 507 1523 90 508 1524 222 508 1525 220 508 1526 57 509 1527 188 509 1528 187 509 1529 58 510 1530 191 510 1531 190 510 1532 123 511 1533 254 511 1534 259 511 1535 89 512 1536 221 512 1537 225 512 1538 127 513 1539 258 513 1540 257 513 1541 21 514 1542 152 514 1543 157 514 1544 93 515 1545 224 515 1546 223 515 1547 59 516 1548 190 516 1549 188 516 1550 128 517 1551 261 517 1552 260 517 1553 25 518 1554 156 518 1555 155 518 1556 94 519 1557 227 519 1558 226 519 1559</p>
        </triangles>
      </mesh>
    </geometry>
  </library_geometries>
  <library_visual_scenes>
    <visual_scene id="Scene" name="Scene">
      <node id="Plane" name="Plane" type="NODE">
        <matrix sid="transform">1 0 0 0 0 1 0 0 0 0 1 0 0 0 0 1</matrix>
        <instance_geometry url="#Plane-mesh" name="Plane"/>
      </node>
      <node id="Empty" name="Empty" type="NODE">
        <matrix sid="transform">16.82109 0 0 -18.45254 0 16.82109 0 -8.915695 0 0 16.82109 -0.03835396 0 0 0 1</matrix>
      </node>
    </visual_scene>
  </library_visual_scenes>
  <scene>
    <instance_visual_scene url="#Scene"/>
  </scene>
</COLLADA>