<?xml version="1.0" encoding="utf-8"?>
<COLLADA xmlns="http://www.collada.org/2005/11/COLLADASchema" version="1.4.1" xmlns:xsi="http://www.w3.org/2001/XMLSchema-instance">
  <asset>
    <contributor>
      <author>Blender User</author>
      <authoring_tool>Blender 4.2.0 commit date:2024-07-16, commit time:06:20, hash:a51f293548ad</authoring_tool>
    </contributor>
    <created>2025-07-07T01:16:03</created>
    <modified>2025-07-07T01:16:03</modified>
    <unit name="meter" meter="1"/>
    <up_axis>Z_UP</up_axis>
  </asset>
  <library_images/>
  <library_geometries>
    <geometry id="Plane-mesh" name="Plane">
      <mesh>
        <source id="Plane-mesh-positions">
          <float_array id="Plane-mesh-positions-array" count="780">-14.02259 -1.127238 0 -14.02259 -1.277238 0 -3.022588 -1.127238 0 -3.022588 -1.277238 0 -3.172612 -1.127238 0 -3.172612 -1.277238 0 -3.022588 -10.13031 0 -3.172612 -10.13031 0 -3.022588 -9.979945 0 -3.172612 -9.979945 0 -14.02259 -10.13031 0 -14.02259 -9.979945 0 -12.27395 -10.13031 0 -12.27395 -9.979945 0 -13.87244 -9.979945 0 -13.87244 -10.13031 0 -14.02259 -1.277238 0 -13.87244 -1.277238 0 -20.01952 -10.13031 0 -20.01952 -9.979945 0 -19.86919 -10.13031 0 -19.86919 -9.979945 0 -20.01952 -8.175123 0 -19.86919 -8.175123 0 -20.01952 -8.025417 0 -19.86919 -8.025417 0 -26.01883 -8.175123 0 -26.01883 -8.025417 0 -26.16917 -8.175123 0 -26.16917 -8.025417 0 -26.01883 -9.979945 0 -26.16917 -9.979945 0 -26.01883 -10.13031 0 -26.16917 -10.13031 0 -44.12908 -9.979945 0 -44.12908 -10.13031 0 -44.27871 -9.979945 0 -44.27871 -10.13031 0 -44.12908 -4.560832 0 -44.27871 -4.560832 0 -44.12908 -4.41043 0 -44.27871 -4.41043 0 -50.08293 -4.560832 0 -50.08293 -4.41043 0 -50.23333 -4.560832 0 -50.23333 -4.41043 0 -50.08293 -10.13031 0 -50.23333 -10.13031 0 -50.08293 -9.979945 0 -50.23333 -9.979945 0 -51.03349 -10.13031 0 -51.03349 -9.979945 0 -51.18358 -10.13031 0 -51.18358 -9.979945 0 -51.03349 -12.5255 0 -51.18358 -12.5255 0 -51.03349 -12.67584 0 -51.18358 -12.67584 0 -48.23196 -12.5255 0 -48.23196 -12.67584 0 -48.38222 -12.5255 0 -48.38222 -12.67584 0 -48.23196 -16.87195 0 -48.38222 -16.87195 0 -48.23196 -17.02236 0 -48.38222 -17.02236 0 -46.83276 -16.87195 0 -46.83276 -17.02236 0 -46.98269 -16.87195 0 -46.98269 -17.02236 0 -46.83276 -17.62232 0 -46.98269 -17.62232 0 -46.83276 -17.77235 0 -46.98269 -17.77235 0 -44.27871 -17.62232 0 -44.27871 -17.77235 0 -44.12908 -17.62232 0 -44.12908 -17.77235 0 -44.27871 -12.67584 0 -44.12908 -12.67584 0 -44.27871 -12.5255 0 -44.12908 -12.5255 0 -3.172612 -12.67584 0 -3.172612 -12.5255 0 -3.022588 -12.67584 0 -3.022588 -12.5255 0 -3.172612 -18.07863 0 -3.022588 -18.07863 0 -3.172612 -18.22833 0 -3.022588 -18.22833 0 2.973329 -18.07863 0 2.973329 -18.22833 0 3.123772 -18.07863 0 3.123772 -18.22833 0 2.973329 -12.67584 0 3.123772 -12.67584 0 2.973329 -12.5255 0 3.123772 -12.5255 0 3.584232 -12.67584 0 3.584232 -12.5255 0 3.734255 -12.67584 0 3.734255 -12.5255 0 3.584232 -10.13031 0 3.734255 -10.13031 0 3.584232 -9.979945 0 3.734255 -9.979945 0 3.123772 -10.13031 0 3.123772 -9.979945 0 2.973329 -10.13031 0 2.973329 -9.979945 0 1.174855 -10.13031 0 1.174855 -9.979945 0 1.325082 -10.13031 0 1.325082 -9.979945 0 3.123772 -5.780987 0 2.973329 -5.780987 0 1.174855 -5.780987 0 1.325082 -5.780987 0 1.174855 -5.630585 0 1.325082 -5.630585 0 -0.2229733 -5.780987 0 -0.2229733 -5.630585 0 -0.07320594 -5.780987 0 -0.07320594 -5.630585 0 -0.2229733 -4.980666 0 -0.07320594 -4.980666 0 -0.2229733 -4.830264 0 -0.07320594 -4.830264 0 -3.022588 -4.980666 0 -3.022588 -4.830264 0 -3.172612 -1.127238 3.5 -14.02259 -1.127238 3.5 -14.02259 -1.277238 3.5 -3.172612 -1.277238 3.5 -3.022588 -1.277238 3.5 -3.022588 -1.127238 3.5 -3.172612 -10.13031 3.5 -3.022588 -10.13031 3.5 -3.022588 -9.979945 3.5 -3.172612 -9.979945 3.5 -14.02259 -9.979945 3.5 -14.02259 -10.13031 3.5 -12.27395 -10.13031 3.5 -13.87244 -9.979945 3.5 -12.27395 -9.979945 3.5 -13.87244 -10.13031 3.5 -13.87244 -1.277238 3.5 -14.02259 -1.277238 3.5 -20.01952 -9.979945 3.5 -20.01952 -10.13031 3.5 -19.86919 -10.13031 3.5 -19.86919 -9.979945 3.5 -19.86919 -8.175123 3.5 -20.01952 -8.175123 3.5 -19.86919 -8.025417 3.5 -20.01952 -8.025417 3.5 -26.01883 -8.025417 3.5 -26.01883 -8.175123 3.5 -26.16917 -8.025417 3.5 -26.16917 -8.175123 3.5 -26.16917 -9.979945 3.5 -26.01883 -9.979945 3.5 -26.16917 -10.13031 3.5 -26.01883 -10.13031 3.5 -44.12908 -9.979945 3.5 -44.12908 -10.13031 3.5 -44.27871 -9.979945 3.5 -44.27871 -10.13031 3.5 -44.12908 -4.560832 3.5 -44.27871 -4.560832 3.5 -44.12908 -4.41043 3.5 -44.27871 -4.41043 3.5 -50.08293 -4.41043 3.5 -50.08293 -4.560832 3.5 -50.23333 -4.41043 3.5 -50.23333 -4.560832 3.5 -50.23333 -10.13031 3.5 -50.08293 -10.13031 3.5 -50.08293 -9.979945 3.5 -50.23333 -9.979945 3.5 -51.03349 -9.979945 3.5 -51.03349 -10.13031 3.5 -51.18358 -9.979945 3.5 -51.18358 -10.13031 3.5 -51.18358 -12.5255 3.5 -51.03349 -12.5255 3.5 -51.18358 -12.67584 3.5 -51.03349 -12.67584 3.5 -48.23196 -12.67584 3.5 -48.23196 -12.5255 3.5 -48.38222 -12.5255 3.5 -48.38222 -12.67584 3.5 -48.38222 -16.87195 3.5 -48.23196 -16.87195 3.5 -48.38222 -17.02236 3.5 -48.23196 -17.02236 3.5 -46.83276 -17.02236 3.5 -46.83276 -16.87195 3.5 -46.98269 -16.87195 3.5 -46.98269 -17.02236 3.5 -46.98269 -17.62232 3.5 -46.83276 -17.62232 3.5 -46.98269 -17.77235 3.5 -46.83276 -17.77235 3.5 -44.27871 -17.77235 3.5 -44.27871 -17.62232 3.5 -44.12908 -17.77235 3.5 -44.12908 -17.62232 3.5 -44.12908 -12.67584 3.5 -44.27871 -12.67584 3.5 -44.12908 -12.5255 3.5 -44.27871 -12.5255 3.5 -3.172612 -12.67584 3.5 -3.172612 -12.5255 3.5 -3.022588 -12.67584 3.5 -3.022588 -12.5255 3.5 -3.172612 -18.07863 3.5 -3.022588 -18.07863 3.5 -3.172612 -18.22833 3.5 -3.022588 -18.22833 3.5 2.973329 -18.22833 3.5 2.973329 -18.07863 3.5 3.123772 -18.22833 3.5 3.123772 -18.07863 3.5 3.123772 -12.67584 3.5 2.973329 -12.67584 3.5 3.123772 -12.5255 3.5 2.973329 -12.5255 3.5 3.584232 -12.67584 3.5 3.584232 -12.5255 3.5 3.734255 -12.67584 3.5 3.734255 -12.5255 3.5 3.734255 -10.13031 3.5 3.584232 -10.13031 3.5 3.734255 -9.979945 3.5 3.584232 -9.979945 3.5 3.123772 -9.979945 3.5 3.123772 -10.13031 3.5 2.973329 -9.979945 3.5 2.973329 -10.13031 3.5 1.174855 -9.979945 3.5 1.174855 -10.13031 3.5 1.325082 -10.13031 3.5 1.325082 -9.979945 3.5 3.123772 -5.780987 3.5 2.973329 -5.780987 3.5 1.325082 -5.780987 3.5 1.174855 -5.780987 3.5 1.325082 -5.630585 3.5 1.174855 -5.630585 3.5 -0.2229733 -5.630585 3.5 -0.2229733 -5.780987 3.5 -0.07320594 -5.780987 3.5 -0.07320594 -5.630585 3.5 -0.07320594 -4.980666 3.5 -0.2229733 -4.980666 3.5 -0.07320594 -4.830264 3.5 -0.2229733 -4.830264 3.5 -3.022588 -4.830264 3.5 -3.022588 -4.980666 3.5</float_array>
          <technique_common>
            <accessor source="#Plane-mesh-positions-array" count="260" stride="3">
              <param name="X" type="float"/>
              <param name="Y" type="float"/>
              <param name="Z" type="float"/>
            </accessor>
          </technique_common>
        </source>
        <source id="Plane-mesh-normals">
          <float_array id="Plane-mesh-normals-array" count="1536">0 0 -1 0 0 -1 0 0 -1 0 0 -1 0 0 -1 0 0 -1 0 0 1 0 0 -1 0 0 -1 0 0 -1 0 0 -1 0 0 -1 0 0 -1 0 0 -1 0 0 -1 0 0 -1 0 0 -1 0 0 -1 0 0 -1 0 0 -1 0 0 -1 0 0 -1 0 0 -1 0 0 -1 0 0 -1 0 0 -1 0 0 -1 0 0 -1 0 0 -1 0 0 -1 0 0 -1 0 0 -1 0 0 -1 0 0 -1 0 0 -1 0 0 -1 0 0 -1 0 0 -1 0 0 -1 0 0 -1 0 0 -1 0 0 -1 0 0 -1 0 0 -1 0 0 -1 0 0 -1 0 0 -1 0 0 -1 0 0 -1 0 0 -1 0 0 -1 0 0 -1 0 0 -1 0 0 -1 0 0 -1 0 0 -1 0 0 -1 0 0 -1 0 0 -1 0 0 -1 0 0 -1 0 0 -1 0 0 -1 0 0 -1 0 0 1 0 0 1 0 0 1 0 0 1 0 0 1 1 0 0 0 0 1 0 0 1 0 0 1 0 0 1 0 0 1 0 0 1 0 0 1 0 0 1 0 0 1 0 0 1 0 0 1 0 0 1 0 0 1 0 0 1 0 0 1 0 0 1 0 0 1 0 0 1 0 0 1 0 0 1 0 0 1 0 0 1 0 0 1 0 0 1 0 0 1 0 0 1 0 0 1 0 0 1 0 0 1 0 0 1 0 0 1 0 0 1 0 0 1 0 0 1 0 0 1 0 0 1 0 0 1 0 0 1 0 0 1 0 0 1 0 0 1 0 0 1 0 0 1 0 0 1 0 0 1 0 0 1 0 0 1 0 0 1 0 0 1 0 0 1 0 0 1 0 0 1 0 0 1 0 0 1 0 0 1 0 0 1 0 0 1 1 0 0 0 1 0 0 1 0 1 0 0 0 -1 0 -1 0 0 1 0 0 0 1 0 0 -1 0 -1 0 0 0 -1 0 0 1 0 0 -1 0 1 0 0 0 1 0 0 1 0 -1 0 0 -1 0 0 1 0 0 -1 0 0 0 1 0 0 -1 0 0 1 0 1 0 0 0 -1 0 -1 0 0 -1 0 0 1 0 0 1 0 0 0 -1 0 0 1 0 1 0 0 0 -1 0 0 1 0 0 1 0 -1 0 0 -1 0 0 0 -1 0 0 -1 0 1 0 0 0 1 0 0 1 0 1 0 0 -1 0 0 0 1 0 1 0 0 0 -1 0 1 0 0 0 -1 0 -1 0 0 0 -1 0 0 -1 0 0 -1 0 -1 0 0 0 1 0 1 0 0 -1 0 0 1 0 0 0 1 0 0 -1 0 1 0 0 0 1 0 -1 0 0 0 -1 0 1 0 0 -1 0 0 1 0 0 0 -1 0 0 -1 0 0 -1 0 0 -1 0 0 1 0 0 -1 0 -1 0 0 0 1 0 -1 0 0 0 1 0 1 0 0 0 1 0 0 1 0 -1 0 0 0 1 0 0 -1 0 -1 0 0 1 0 0 -1 0 0 0 -1 0 1 0 0 1 0 0 -1 0 0 0 1 0 -1 0 0 1 0 0 0 -1 0 0 1 0 1 0 0 0 1 0 0 1 0 0 -1 0 1 0 0 -1 0 0 0 1 0 -1 0 0 1 0 0 -1 0 0 0 -1 0 -1 0 0 1 0 0 0 -1 0 -1 0 0 0 1 0 0 -1 0 0 -1 0 0 1 0 0 -1 0 1 0 0 0 1 0 -1 0 0 -1 0 0 0 -1 0 -1 0 0 0 1 0 1 0 0 -1 0 0 0 -1 0 -1 0 0 0 1 0 1 0 0 1 0 0 0 0 -1 0 0 -1 0 0 -1 0 0 -1 0 0 -1 0 0 -1 0 0 1 0 0 -1 0 0 -1 0 0 -1 0 0 -1 0 0 -1 0 0 -1 0 0 -1 0 0 -1 0 0 -1 0 0 -1 0 0 -1 0 0 -1 0 0 -1 0 0 -1 0 0 -1 0 0 -1 0 0 -1 0 0 -1 0 0 -1 0 0 -1 0 0 -1 0 0 -1 0 0 -1 0 0 -1 0 0 -1 0 0 -1 0 0 -1 0 0 -1 0 0 -1 0 0 -1 0 0 -1 0 0 -1 0 0 -1 0 0 -1 0 0 -1 0 0 -1 0 0 -1 0 0 -1 0 0 -1 0 0 -1 0 0 -1 0 0 -1 0 0 -1 0 0 -1 0 0 -1 0 0 -1 0 0 -1 0 0 -1 0 0 -1 0 0 -1 0 0 -1 0 0 -1 0 0 -1 0 0 -1 0 0 -1 0 0 -1 0 0 -1 0 0 1 0 0 1 0 0 1 0 0 1 0 0 1 1 0 0 0 0 1 0 0 1 0 0 1 0 0 1 0 0 1 0 0 1 0 0 1 0 0 1 0 0 1 0 0 1 0 0 1 0 0 1 0 0 1 0 0 1 0 0 1 0 0 1 0 0 1 0 0 1 0 0 1 0 0 1 0 0 1 0 0 1 0 0 1 0 0 1 0 0 1 0 0 1 0 0 1 0 0 1 0 0 1 0 0 1 0 0 1 0 0 1 0 0 1 0 0 1 0 0 1 0 0 1 0 0 1 0 0 1 0 0 1 0 0 1 0 0 1 0 0 1 0 0 1 0 0 1 0 0 1 0 0 1 0 0 1 0 0 1 0 0 1 0 0 1 0 0 1 0 0 1 0 0 1 0 0 1 0 0 1 0 0 1 0 0 1 1 0 0 0 1 0 0 1 0 1 0 0 0 -1 0 -1 0 0 1 0 0 0 1 0 0 -1 0 -1 0 0 0 -1 0 0 1 0 0 -1 0 1 0 0 0 1 0 0 1 0 -1 0 0 -1 0 0 1 0 0 -1 0 0 0 1 0 0 -1 0 0 1 0 1 0 0 0 -1 0 -1 0 0 -1 0 0 1 0 0 1 0 0 0 -1 0 0 1 0 1 0 0 0 -1 0 0 1 0 0 1 0 -1 0 0 -1 0 0 0 -1 0 0 -1 0 1 0 0 0 1 0 0 1 0 1 0 0 -1 0 0 0 1 0 1 0 0 0 -1 0 1 0 0 0 -1 0 -1 0 0 0 -1 0 0 -1 0 0 -1 0 -1 0 0 0 1 0 1 0 0 -1 0 0 1 0 0 0 1 0 0 -1 0 1 0 0 0 1 0 -1 0 0 0 -1 0 1 0 0 -1 0 0 1 0 0 0 -1 0 0 -1 0 0 -1 0 0 -1 0 0 1 0 0 -1 0 -1 0 0 0 1 0 -1 0 0 0 1 0 1 0 0 0 1 0 0 1 0 -1 0 0 0 1 0 0 -1 0 -1 0 0 1 0 0 -1 0 0 0 -1 0 1 0 0 1 0 0 -1 0 0 0 1 0 -1 0 0 1 0 0 0 -1 0 0 1 0 1 0 0 0 1 0 0 1 0 0 -1 0 1 0 0 -1 0 0 0 1 0 -1 0 0 1 0 0 -1 0 0 0 -1 0 -1 0 0 1 0 0 0 -1 0 -1 0 0 0 1 0 0 -1 0 0 -1 0 0 1 0 0 -1 0 1 0 0 0 1 0 -1 0 0 -1 0 0 0 -1 0 -1 0 0 0 1 0 1 0 0 -1 0 0 0 -1 0 -1 0 0 0 1 0 1 0 0 1 0 0</float_array>
          <technique_common>
            <accessor source="#Plane-mesh-normals-array" count="512" stride="3">
              <param name="X" type="float"/>
              <param name="Y" type="float"/>
              <param name="Z" type="float"/>
            </accessor>
          </technique_common>
        </source>
        <source id="Plane-mesh-map-0">
          <float_array id="Plane-mesh-map-0-array" count="3072">0 1 1 0.9173554 0 0.9173554 0 0.9173554 1 0 0 0 1 1 1 0.9173554 1 1 1 1 1 0.9173554 1 1 1 0.9173554 1 0.9173554 1 0.9173553 1 0.9173553 1 0.9173554 1 0.9173554 1 0.9173554 0 1 0 0.9173554 1 0.9173554 1 0.9173554 1 0.9173554 1 0.9173554 1 0.9173554 1 0.9173554 1 0.9173554 1 0.9173554 1 0.9173554 1 0.9173554 1 0.9173554 1 0.9173554 1 0.9173554 1 0.9173554 1 0.9173554 1 0.9173554 1 0.9173554 1 0.9173554 1 0.9173554 1 0.9173554 1 0.9173554 1 0.9173554 1 0.9173554 1 0.9173554 1 0.9173554 1 0.9173554 1 0.9173554 1 0.9173554 1 0.9173554 1 0.9173554 1 0.9173554 1 0.9173554 1 0.9173554 1 0.9173554 1 0.9173554 1 0.9173554 1 0.9173554 1 0.9173554 1 0.9173554 1 0.9173554 1 0.9173554 1 0.9173554 1 0.9173554 1 0.9173554 1 0.9173554 1 0.9173554 1 0.9173554 1 0.9173554 1 0.9173554 1 0.9173554 1 0.9173554 1 0.9173554 1 0.9173554 1 0.9173554 1 0.9173554 1 0.9173554 1 0.9173554 1 0.9173554 1 0.9173554 1 0.9173554 1 0.9173554 1 0.9173554 1 0.9173554 1 0.9173554 1 0.9173553 1 0.9173553 1 0.9173553 1 0.9173554 1 0.9173554 1 0.9173554 1 0.9173553 1 0.9173554 1 0.9173554 1 0.9173553 1 0.9173554 1 0.9173554 1 0.9173554 1 0.9173553 1 0.9173553 1 0.9173554 1 0.9173554 1 0.9173554 1 0.9173554 1 0.9173554 1 0.9173554 1 0.9173554 1 0.9173554 1 0.9173554 1 0.9173554 1 0.9173554 1 0.9173554 1 0.9173554 1 0.9173554 1 0.9173554 1 0.9173554 1 0.9173554 1 0.9173554 1 0.9173554 1 0.9173554 1 0.9173554 1 0.9173554 1 0.9173554 1 0.9173554 1 0.9173554 1 0.9173554 1 0.9173554 1 0.9173554 1 0.9173554 1 0.9173554 1 0.9173554 1 0.9173554 1 0.9173554 1 0.9173554 1 0.9173554 1 0.9173554 1 0.9173554 1 0.9173554 1 0.9173554 1 0.9173554 1 0.9173554 1 0.9173554 1 0.9173554 1 0.9173554 1 0.9173554 1 0.9173554 1 0.9173554 1 0.9173554 1 0.9173554 1 0.9173554 1 0.9173554 1 0.9173554 1 0.9173554 1 0.9173554 1 0.9173554 1 0.9173554 1 0.9173554 1 0.9173554 1 0.9173554 1 0.9173554 1 0.9173554 1 0.9173554 1 0.9173554 1 0.9173554 1 0.9173554 1 0.9173554 1 0.9173554 1 0.9173554 1 0.9173554 1 0.9173554 1 0.9173554 1 0.9173554 1 0.9173554 1 0.9173554 1 0.9173554 1 0.9173554 1 0.9173554 1 0.9173554 1 0.9173554 1 0.9173553 1 0.9173553 1 0.9173554 1 0.9173554 1 0.9173554 1 0.9173554 1 0.9173554 1 0.9173554 1 0.9173554 1 0.9173554 1 0.9173554 1 0.9173554 1 0.9173554 1 0 0 0.9173554 0 0 1 0.9173554 1 1 1 1 1 0.9173554 1 1 1 1 1 0.9173554 1 0.9173554 1 0.9173553 1 0.9173554 1 0.9173553 1 0.9173554 1 0.9173554 1 0.9173553 1 0.9173553 1 0.9173554 1 0.9173554 1 0.9173554 1 0.9173554 1 0.9173554 1 0.9173554 1 0.9173554 1 0.9173554 1 0.9173554 1 0.9173554 1 0.9173554 1 0.9173554 1 0.9173554 1 0.9173554 1 0.9173554 1 0.9173554 1 0.9173554 1 0.9173554 1 0.9173554 1 0.9173554 1 0.9173554 1 0.9173554 1 0.9173554 1 0.9173554 1 0.9173554 1 0.9173554 1 0.9173554 1 0.9173554 1 0.9173554 1 0.9173554 1 0.9173554 1 0.9173554 1 0.9173554 1 0.9173554 1 0.9173554 1 0.9173554 1 0.9173554 1 0.9173554 1 0.9173554 1 0.9173554 1 0.9173554 1 0.9173554 1 0.9173554 1 0.9173554 1 0.9173554 1 0.9173554 1 0.9173554 1 0.9173554 1 0.9173554 1 0.9173554 1 0.9173554 1 0.9173554 1 0.9173554 1 0.9173554 1 0.9173554 1 0.9173554 1 0.9173554 1 0.9173554 1 0.9173554 1 0.9173554 1 0.9173554 1 0.9173554 1 0.9173554 1 0.9173553 1 0.9173554 1 0.9173553 1 0.9173554 1 0.9173553 1 0.9173554 1 0.9173553 1 0.9173554 1 0.9173554 1 0.9173553 1 0.9173554 1 0.9173554 1 0.9173554 1 0.9173554 1 0.9173553 1 0.9173554 1 0.9173553 1 0.9173554 1 0.9173554 1 0.9173554 1 0.9173554 1 0.9173554 1 0.9173554 1 0.9173554 1 0.9173554 1 0.9173554 1 0.9173554 1 0.9173554 1 0.9173554 1 0.9173554 1 0.9173554 1 0.9173554 1 0.9173554 1 0.9173554 1 0.9173554 1 0.9173554 1 0.9173554 1 0.9173554 1 0.9173554 1 0.9173554 1 0.9173554 1 0.9173554 1 0.9173554 1 0.9173554 1 0.9173554 1 0.9173554 1 0.9173554 1 0.9173554 1 0.9173554 1 0.9173554 1 0.9173554 1 0.9173554 1 0.9173554 1 0.9173554 1 0.9173554 1 0.9173554 1 0.9173554 1 0.9173554 1 0.9173554 1 0.9173554 1 0.9173554 1 0.9173554 1 0.9173554 1 0.9173554 1 0.9173554 1 0.9173554 1 0.9173554 1 0.9173554 1 0.9173554 1 0.9173554 1 0.9173554 1 0.9173554 1 0.9173554 1 0.9173554 1 0.9173554 1 0.9173554 1 0.9173554 1 0.9173554 1 0.9173554 1 0.9173554 1 0.9173554 1 0.9173554 1 0.9173554 1 0.9173554 1 0.9173554 1 0.9173554 1 0.9173554 1 0.9173554 1 0.9173554 1 0.9173554 1 0.9173554 1 0.9173554 1 0.9173554 1 0.9173554 1 0.9173554 1 0.9173553 1 0.9173554 1 0.9173553 1 0.9173554 1 0.9173554 1 0.9173554 1 0.9173554 1 0.9173554 1 0.9173554 1 0.9173554 1 0.9173554 1 0.9173554 1 0.9173554 1 0.9173554 1 0.9173554 1 0.9173554 1 0.9173554 1 0.9173554 1 0.9173554 1 0.9173554 1 0.9173553 1 0.9173553 1 0.9173554 1 0.9173554 1 0.9173554 1 0.9173554 1 0.9173554 1 0.9173554 1 0.9173554 1 0.9173554 1 0.9173554 1 0.9173554 1 0.9173554 1 0.9173554 1 0.9173553 1 0.9173554 1 0.9173554 1 0.9173554 1 0.9173554 1 0.9173554 1 0.9173554 1 0.9173554 1 0.9173554 1 0.9173553 1 0.9173554 1 0.9173554 1 0.9173554 1 0.9173554 1 0.9173554 1 0.9173554 1 0.9173554 1 0.9173554 1 0.9173554 1 0.9173554 1 0.9173554 1 0.9173554 1 0.9173554 1 0.9173554 1 0.9173554 1 0.9173554 1 0.9173554 1 0.9173554 1 0.9173554 1 0.9173554 1 0.9173554 1 0.9173554 1 0.9173554 1 0.9173554 1 0.9173554 1 0.9173554 1 0.9173553 1 0.9173553 1 0.9173553 1 0.9173554 1 0.9173554 1 0.9173554 1 0.9173554 1 0.9173553 1 0.9173553 1 0.9173554 1 0.9173554 1 0.9173554 1 0.9173554 1 0.9173554 1 0.9173554 1 0.9173554 1 0.9173554 1 0.9173554 1 0.9173553 1 0.9173553 1 0.9173553 1 0.9173554 1 0.9173554 1 0.9173554 1 0.9173554 1 0.9173554 1 0.9173554 1 0.9173554 1 0.9173554 1 0.9173554 1 0.9173554 1 0.9173554 1 0.9173554 1 0.9173554 1 0.9173553 1 0.9173553 1 0.9173554 1 0.9173554 1 0.9173554 1 0.9173554 1 0.9173554 1 0.9173554 0 0 0 0.9173554 0 0.9173554 1 0.9173553 1 0.9173554 1 0.9173554 1 0.9173554 1 0.9173554 1 0.9173554 1 0 0 0 0 0 1 0.9173554 1 0.9173554 1 0.9173554 1 0.9173554 1 0.9173554 1 0.9173554 1 0.9173554 1 0.9173554 1 0.9173554 1 0.9173554 1 0.9173554 1 0.9173554 1 0.9173554 1 0.9173554 1 0.9173554 0 1 1 1 1 1 1 0.9173554 1 0.9173554 1 0.9173554 0 0.9173554 0 1 0 1 1 0.9173554 1 0.9173554 1 0.9173554 1 0.9173554 1 0.9173554 1 0.9173554 1 0.9173554 1 0.9173554 1 0.9173554 1 0.9173554 1 0 1 0 1 0.9173554 1 0.9173554 1 0.9173554 1 0.9173554 1 0.9173554 1 0.9173554 1 0.9173554 1 0.9173554 1 0.9173554 1 1 1 0.9173554 1 0.9173554 1 0.9173554 1 0.9173554 1 0.9173554 1 0.9173554 1 0.9173554 1 0.9173554 1 1 1 1 1 1 1 0.9173554 1 0.9173554 1 0.9173554 1 0.9173554 1 0.9173554 1 0.9173554 1 0.9173554 1 0.9173554 1 0.9173554 1 0.9173554 1 0.9173554 1 0.9173554 1 1 1 1 1 1 1 0.9173554 1 0.9173554 1 0.9173554 1 0.9173554 1 0.9173554 1 0.9173554 1 0.9173554 1 0.9173554 1 0.9173554 1 0.9173554 1 0.9173554 1 0.9173554 1 0.9173554 1 0.9173554 1 0.9173554 1 0.9173554 1 0.9173554 1 0.9173554 1 0.9173554 1 0.9173554 1 0.9173554 1 0.9173554 1 0.9173554 1 0.9173554 1 0.9173554 1 0.9173553 1 0.9173553 1 0.9173554 1 0.9173554 1 0.9173554 1 0.9173554 1 0.9173554 1 0.9173554 1 0.9173554 1 0.9173554 1 0.9173554 1 0.9173554 1 0.9173554 1 0.9173554 1 0.9173554 1 0.9173554 1 0.9173554 1 0.9173554 1 0.9173554 1 0.9173554 1 0.9173554 1 0.9173554 1 0.9173554 1 0.9173554 1 0.9173554 1 0.9173554 1 0.9173554 1 0.9173554 1 0.9173554 1 0.9173554 1 0.9173554 1 0.9173554 1 0.9173553 1 0.9173554 1 0.9173554 1 0.9173554 1 0.9173554 1 0.9173554 1 0.9173554 1 0.9173554 1 0.9173554 1 0.9173554 1 0.9173554 1 0.9173554 1 0.9173554 1 0.9173554 1 0.9173554 1 0.9173554 1 0.9173554 1 0.9173554 1 0.9173553 1 0.9173554 1 0.9173554 1 0.9173554 1 0.9173554 1 0.9173554 1 0.9173554 1 0.9173554 1 0.9173554 1 0.9173554 1 0.9173554 1 0.9173554 1 0.9173554 1 0.9173554 1 0.9173554 1 0.9173554 1 0.9173554 1 0.9173554 1 0.9173554 1 0.9173554 1 0.9173554 1 0.9173554 1 0.9173554 1 0.9173554 1 0.9173554 1 0.9173554 1 0.9173554 1 0.9173554 1 0.9173554 1 0.9173554 1 0.9173554 1 0.9173554 1 0.9173554 1 0.9173554 1 0.9173554 1 0.9173554 1 0.9173554 1 0.9173554 1 0.9173554 1 0.9173554 1 0.9173554 1 0.9173554 1 0.9173554 1 0.9173554 1 0.9173554 1 0.9173554 1 0.9173554 1 0.9173554 1 0.9173554 1 0.9173554 1 0.9173554 1 0.9173554 1 0.9173554 1 0.9173554 1 0.9173554 1 0.9173554 1 0.9173554 1 0.9173554 1 0.9173553 1 0.9173553 1 0.9173554 1 0.9173554 1 0.9173554 1 0.9173554 1 0.9173554 1 0.9173554 1 0.9173554 1 0.9173554 1 0.9173554 1 0.9173554 1 0.9173554 1 0.9173554 1 0.9173554 1 0.9173554 1 0.9173554 1 0.9173553 1 0.9173554 1 0.9173554 1 0.9173554 1 0.9173554 1 0.9173554 1 0.9173554 1 0.9173554 1 0.9173554 1 0.9173554 1 0.9173554 1 0.9173554 1 0.9173554 1 0.9173554 1 0.9173554 1 0.9173554 1 0.9173554 1 0.9173554 1 0.9173554 1 0.9173554 1 0.9173554 1 0.9173554 1 0.9173554 1 0.9173554 1 0.9173554 1 0.9173554 1 0.9173554 1 0.9173554 1 0.9173554 1 0.9173554 1 0.9173554 1 0.9173554 1 0.9173554 1 0.9173554 1 0.9173554 1 0.9173554 1 0.9173554 1 0.9173554 1 0.9173554 1 0.9173554 1 0.9173554 1 0.9173554 1 0.9173554 1 0.9173554 1 0.9173554 1 0.9173554 1 0.9173554 1 0.9173554 1 0.9173554 1 0.9173554 1 0.9173554 1 0.9173554 1 0.9173554 1 0.9173554 0 1 1 1 1 0.9173554 0 0.9173554 1 0.9173554 1 0 1 1 1 0.9173554 1 0.9173554 1 1 1 0.9173554 1 0.9173554 1 0.9173554 1 0.9173554 1 0.9173554 1 0.9173553 1 0.9173554 1 0.9173554 1 0.9173554 1 1 0 1 1 0.9173554 1 0.9173554 1 0.9173554 1 0.9173554 1 0.9173554 1 0.9173554 1 0.9173554 1 0.9173554 1 0.9173554 1 0.9173554 1 0.9173554 1 0.9173554 1 0.9173554 1 0.9173554 1 0.9173554 1 0.9173554 1 0.9173554 1 0.9173554 1 0.9173554 1 0.9173554 1 0.9173554 1 0.9173554 1 0.9173554 1 0.9173554 1 0.9173554 1 0.9173554 1 0.9173554 1 0.9173554 1 0.9173554 1 0.9173554 1 0.9173554 1 0.9173554 1 0.9173554 1 0.9173554 1 0.9173554 1 0.9173554 1 0.9173554 1 0.9173554 1 0.9173554 1 0.9173554 1 0.9173554 1 0.9173554 1 0.9173554 1 0.9173554 1 0.9173554 1 0.9173554 1 0.9173554 1 0.9173554 1 0.9173554 1 0.9173554 1 0.9173554 1 0.9173554 1 0.9173554 1 0.9173554 1 0.9173554 1 0.9173554 1 0.9173554 1 0.9173554 1 0.9173554 1 0.9173554 1 0.9173554 1 0.9173554 1 0.9173554 1 0.9173554 1 0.9173554 1 0.9173553 1 0.9173553 1 0.9173553 1 0.9173554 1 0.9173554 1 0.9173553 1 0.9173553 1 0.9173554 1 0.9173553 1 0.9173553 1 0.9173554 1 0.9173554 1 0.9173554 1 0.9173553 1 0.9173554 1 0.9173554 1 0.9173554 1 0.9173554 1 0.9173554 1 0.9173554 1 0.9173554 1 0.9173554 1 0.9173554 1 0.9173554 1 0.9173554 1 0.9173554 1 0.9173554 1 0.9173554 1 0.9173554 1 0.9173554 1 0.9173554 1 0.9173554 1 0.9173554 1 0.9173554 1 0.9173554 1 0.9173554 1 0.9173554 1 0.9173554 1 0.9173554 1 0.9173554 1 0.9173554 1 0.9173554 1 0.9173554 1 0.9173554 1 0.9173554 1 0.9173554 1 0.9173554 1 0.9173554 1 0.9173554 1 0.9173554 1 0.9173554 1 0.9173554 1 0.9173554 1 0.9173554 1 0.9173554 1 0.9173554 1 0.9173554 1 0.9173554 1 0.9173554 1 0.9173554 1 0.9173554 1 0.9173554 1 0.9173554 1 0.9173554 1 0.9173554 1 0.9173554 1 0.9173554 1 0.9173554 1 0.9173554 1 0.9173554 1 0.9173554 1 0.9173554 1 0.9173554 1 0.9173554 1 0.9173554 1 0.9173554 1 0.9173554 1 0.9173554 1 0.9173554 1 0.9173554 1 0.9173554 1 0.9173554 1 0.9173554 1 0.9173554 1 0.9173554 1 0.9173554 1 0.9173554 1 0.9173554 1 0.9173554 1 0.9173554 1 0.9173554 1 0.9173554 1 0.9173554 1 0.9173554 1 0.9173553 1 0.9173554 1 0.9173554 1 0.9173554 1 0.9173554 1 0.9173554 1 0.9173554 1 0.9173554 1 0.9173554 1 0.9173554 1 0.9173554 1 0.9173554 1 0 1 0.9173554 0 0.9173554 1 0.9173554 1 0.9173554 1 1 1 0.9173554 1 0.9173554 1 1 1 0.9173554 1 0.9173554 1 0.9173554 1 0.9173554 1 0.9173554 1 0.9173553 1 0.9173554 1 0.9173554 1 0.9173553 1 0.9173554 1 0.9173554 1 0.9173554 1 0.9173554 1 0.9173554 1 0.9173554 1 0.9173554 1 0.9173554 1 0.9173554 1 0.9173554 1 0.9173554 1 0.9173554 1 0.9173554 1 0.9173554 1 0.9173554 1 0.9173554 1 0.9173554 1 0.9173554 1 0.9173554 1 0.9173554 1 0.9173554 1 0.9173554 1 0.9173554 1 0.9173554 1 0.9173554 1 0.9173554 1 0.9173554 1 0.9173554 1 0.9173554 1 0.9173554 1 0.9173554 1 0.9173554 1 0.9173554 1 0.9173554 1 0.9173554 1 0.9173554 1 0.9173554 1 0.9173554 1 0.9173554 1 0.9173554 1 0.9173554 1 0.9173554 1 0.9173554 1 0.9173554 1 0.9173554 1 0.9173554 1 0.9173554 1 0.9173554 1 0.9173554 1 0.9173554 1 0.9173554 1 0.9173554 1 0.9173554 1 0.9173554 1 0.9173554 1 0.9173554 1 0.9173554 1 0.9173554 1 0.9173554 1 0.9173554 1 0.9173554 1 0.9173554 1 0.9173554 1 0.9173553 1 0.9173554 1 0.9173554 1 0.9173554 1 0.9173553 1 0.9173553 1 0.9173553 1 0.9173553 1 0.9173554 1 0.9173553 1 0.9173553 1 0.9173554 1 0.9173554 1 0.9173554 1 0.9173554 1 0.9173554 1 0.9173554 1 0.9173553 1 0.9173554 1 0.9173554 1 0.9173554 1 0.9173554 1 0.9173554 1 0.9173554 1 0.9173554 1 0.9173554 1 0.9173554 1 0.9173554 1 0.9173554 1 0.9173554 1 0.9173554 1 0.9173554 1 0.9173554 1 0.9173554 1 0.9173554 1 0.9173554 1 0.9173554 1 0.9173554 1 0.9173554 1 0.9173554 1 0.9173554 1 0.9173554 1 0.9173554 1 0.9173554 1 0.9173554 1 0.9173554 1 0.9173554 1 0.9173554 1 0.9173554 1 0.9173554 1 0.9173554 1 0.9173554 1 0.9173554 1 0.9173554 1 0.9173554 1 0.9173554 1 0.9173554 1 0.9173554 1 0.9173554 1 0.9173554 1 0.9173554 1 0.9173554 1 0.9173554 1 0.9173554 1 0.9173554 1 0.9173554 1 0.9173554 1 0.9173554 1 0.9173554 1 0.9173554 1 0.9173554 1 0.9173554 1 0.9173554 1 0.9173554 1 0.9173554 1 0.9173554 1 0.9173554 1 0.9173554 1 0.9173554 1 0.9173554 1 0.9173554 1 0.9173554 1 0.9173554 1 0.9173554 1 0.9173554 1 0.9173554 1 0.9173554 1 0.9173554 1 0.9173554 1 0.9173554 1 0.9173554 1 0.9173554 1 0.9173554 1 0.9173554 1 0.9173554 1 0.9173554 1 0.9173554 1 0.9173554 1 0.9173553 1 0.9173554 1 0.9173554 1 0.9173554 1 0.9173554 1 0.9173554 1 0.9173554 1 0.9173554 1 0.9173554 1 0.9173554 1 0.9173554 1 0.9173554 1 0.9173554 1 0.9173554 1 0.9173554 1 0.9173554 1 0.9173554 1 0.9173554 1 0.9173553 1 0.9173554 1 0.9173554 1 0.9173554 1 0.9173554 1 0.9173554 1 0.9173554 1 0.9173554 1 0.9173554 1 0.9173554 1 0.9173554 1 0.9173554 1 0.9173554 1 0.9173553 1 0.9173553 1 0.9173554 1 0.9173554 1 0.9173554 1 0.9173554 1 0.9173554 1 0.9173554 1 0.9173554 1 0.9173553 1 0.9173553 1 0.9173554 1 0.9173554 1 0.9173554 1 0.9173554 1 0.9173554 1 0.9173554 1 0.9173554 1 0.9173554 1 0.9173554 1 0.9173554 1 0.9173554 1 0.9173554 1 0.9173554 1 0.9173554 1 0.9173554 1 0.9173554 1 0.9173554 1 0.9173554 1 0.9173554 1 0.9173554 1 0.9173554 1 0.9173554 1 0.9173554 1 0.9173554 1 0.9173554 1 0.9173553 1 0.9173553 1 0.9173553 1 0.9173554 1 0.9173554 1 0.9173554 1 0.9173554 1 0.9173554 1 0.9173553 1 0.9173554 1 0.9173554 1 0.9173554 1 0.9173554 1 0.9173554 1 0.9173554 1 0.9173554 1 0.9173554 1 0.9173554 1 0.9173553 1 0.9173553 1 0.9173553 1 0.9173554 1 0.9173554 1 0.9173554 1 0.9173554 1 0.9173554 1 0.9173554 1 0.9173554 1 0.9173554 1 0.9173554 1 0.9173554 1 0.9173554 1 0.9173554 1 0.9173554 1 0.9173554 1 0.9173553 1 0.9173554 1 0.9173554 1 0.9173554 1 0.9173554 1 0.9173554 1 0.9173554 0 0 0 0 0 0.9173554 1 0.9173553 1 0.9173553 1 0.9173554 1 0.9173554 1 0.9173554 1 0.9173554 1 0 1 0 0 0 1 0.9173554 1 0.9173554 1 0.9173554 1 0.9173554 1 0.9173554 1 0.9173554 1 0.9173554 1 0.9173554 1 0.9173554 1 0.9173554 1 0.9173554 1 0.9173554 1 0.9173554 1 0.9173554 1 0.9173554 0 1 0 1 1 1 1 0.9173554 1 0.9173554 1 0.9173554 0 0.9173554 0 0.9173554 0 1 1 0.9173554 1 0.9173554 1 0.9173554 1 0.9173554 1 0.9173554 1 0.9173554 1 0.9173554 1 0.9173554 1 0.9173554 1 0.9173554 1 0.9173554 1 0 1 0.9173554 1 0.9173554 1 0.9173554 1 0.9173554 1 0.9173554 1 0.9173554 1 0.9173554 1 0.9173554 1 0.9173554 1 1 1 1 1 0.9173554 1 0.9173554 1 0.9173554 1 0.9173554 1 0.9173554 1 0.9173554 1 0.9173554 1 1 1 1 1 1 1 0.9173554 1 0.9173554 1 0.9173554 1 0.9173554 1 0.9173554 1 0.9173554 1 0.9173554 1 0.9173554 1 0.9173554 1 0.9173554 1 0.9173554 1 0.9173554 1 1 1 1 1 1 1 0.9173554 1 0.9173554 1 0.9173554 1 0.9173554 1 0.9173554 1 0.9173554 1 0.9173554 1 0.9173554 1 0.9173554 1 0.9173554 1 0.9173554 1 0.9173554 1 0.9173554 1 0.9173554 1 0.9173554 1 0.9173554 1 0.9173554 1 0.9173554 1 0.9173554 1 0.9173554 1 0.9173554 1 0.9173554 1 0.9173554 1 0.9173554 1 0.9173554 1 0.9173554 1 0.9173553 1 0.9173554 1 0.9173554 1 0.9173554 1 0.9173554 1 0.9173554 1 0.9173554 1 0.9173554 1 0.9173554 1 0.9173554 1 0.9173554 1 0.9173554 1 0.9173554 1 0.9173554 1 0.9173554 1 0.9173554 1 0.9173554 1 0.9173554 1 0.9173554 1 0.9173554 1 0.9173554 1 0.9173554 1 0.9173554 1 0.9173554 1 0.9173554 1 0.9173554 1 0.9173554 1 0.9173554 1 0.9173554 1 0.9173554 1 0.9173554 1 0.9173553 1 0.9173553 1 0.9173554 1 0.9173554 1 0.9173554 1 0.9173554 1 0.9173554 1 0.9173554 1 0.9173554 1 0.9173554 1 0.9173554 1 0.9173554 1 0.9173554 1 0.9173554 1 0.9173554 1 0.9173554 1 0.9173554 1 0.9173554 1 0.9173553 1 0.9173553 1 0.9173554 1 0.9173554 1 0.9173554 1 0.9173554 1 0.9173554 1 0.9173554 1 0.9173554 1 0.9173554 1 0.9173554 1 0.9173554 1 0.9173554 1 0.9173554 1 0.9173554 1 0.9173554 1 0.9173554 1 0.9173554 1 0.9173554 1 0.9173554 1 0.9173554 1 0.9173554 1 0.9173554 1 0.9173554 1 0.9173554 1 0.9173554 1 0.9173554 1 0.9173554 1 0.9173554 1 0.9173554 1 0.9173554 1 0.9173554 1 0.9173554 1 0.9173554 1 0.9173554 1 0.9173554 1 0.9173554 1 0.9173554 1 0.9173554 1 0.9173554 1 0.9173554 1 0.9173554 1 0.9173554 1 0.9173554 1 0.9173554 1 0.9173554 1 0.9173554 1 0.9173554 1 0.9173554 1 0.9173554 1 0.9173554 1 0.9173554 1 0.9173554 1 0.9173554 1 0.9173554 1 0.9173554 1 0.9173554 1 0.9173554 1 0.9173554 1 0.9173553 1 0.9173554 1 0.9173554 1 0.9173554 1 0.9173554 1 0.9173554 1 0.9173554 1 0.9173554 1 0.9173554 1 0.9173554 1 0.9173554 1 0.9173554 1 0.9173554 1 0.9173554 1 0.9173554 1 0.9173554 1 0.9173553 1 0.9173553 1 0.9173554 1 0.9173554 1 0.9173554 1 0.9173554 1 0.9173554 1 0.9173554 1 0.9173554 1 0.9173554 1 0.9173554 1 0.9173554 1 0.9173554 1 0.9173554 1 0.9173554 1 0.9173554 1 0.9173554 1 0.9173554 1 0.9173554 1 0.9173554 1 0.9173554 1 0.9173554 1 0.9173554 1 0.9173554 1 0.9173554 1 0.9173554 1 0.9173554 1 0.9173554 1 0.9173554 1 0.9173554 1 0.9173554 1 0.9173554 1 0.9173554 1 0.9173554 1 0.9173554 1 0.9173554 1 0.9173554 1 0.9173554 1 0.9173554 1 0.9173554 1 0.9173554 1 0.9173554 1 0.9173554 1 0.9173554 1 0.9173554 1 0.9173554 1 0.9173554 1 0.9173554 1 0.9173554 1 0.9173554 1 0.9173554 1 0.9173554 1 0.9173554 1 0.9173554</float_array>
          <technique_common>
            <accessor source="#Plane-mesh-map-0-array" count="1536" stride="2">
              <param name="S" type="float"/>
              <param name="T" type="float"/>
            </accessor>
          </technique_common>
        </source>
        <vertices id="Plane-mesh-vertices">
          <input semantic="POSITION" source="#Plane-mesh-positions"/>
        </vertices>
        <triangles count="512">
          <input semantic="VERTEX" source="#Plane-mesh-vertices" offset="0"/>
          <input semantic="NORMAL" source="#Plane-mesh-normals" offset="1"/>
          <input semantic="TEXCOORD" source="#Plane-mesh-map-0" offset="2" set="0"/>
          <p>2 0 0 5 0 1 4 0 2 4 1 3 1 1 4 0 1 5 6 2 6 9 2 7 8 2 8 8 3 9 5 3 10 3 3 11 10 4 12 14 4 13 15 4 14 12 5 15 9 5 16 7 5 17 133 6 18 135 6 19 130 6 20 16 7 21 14 7 22 11 7 23 18 8 24 21 8 25 20 8 26 20 9 27 11 9 28 10 9 29 22 10 30 21 10 31 19 10 32 24 11 33 23 11 34 22 11 35 26 12 36 24 12 37 22 12 38 28 13 39 27 13 40 26 13 41 30 14 42 28 14 43 26 14 44 32 15 45 31 15 46 30 15 47 35 16 48 31 16 49 33 16 50 37 17 51 34 17 52 35 17 53 39 18 54 34 18 55 36 18 56 41 19 57 38 19 58 39 19 59 42 20 60 41 20 61 39 20 62 44 21 63 43 21 64 42 21 65 46 22 66 49 22 67 48 22 68 48 23 69 44 23 70 42 23 71 50 24 72 49 24 73 47 24 74 52 25 75 51 25 76 50 25 77 54 26 78 52 26 79 50 26 80 56 27 81 55 27 82 54 27 83 58 28 84 61 28 85 60 28 86 60 29 87 56 29 88 54 29 89 62 30 90 61 30 91 59 30 92 64 31 93 63 31 94 62 31 95 66 32 96 69 32 97 68 32 98 68 33 99 64 33 100 62 33 101 70 34 102 69 34 103 67 34 104 72 35 105 71 35 106 70 35 107 74 36 108 72 36 109 70 36 110 76 37 111 75 37 112 74 37 113 78 38 114 76 38 115 74 38 116 80 39 117 79 39 118 78 39 119 83 40 120 79 40 121 81 40 122 85 41 123 82 41 124 83 41 125 87 42 126 82 42 127 84 42 128 89 43 129 86 43 130 87 43 131 90 44 132 89 44 133 87 44 134 92 45 135 91 45 136 90 45 137 94 46 138 92 46 139 90 46 140 96 47 141 95 47 142 94 47 143 99 48 144 95 48 145 97 48 146 101 49 147 98 49 148 99 49 149 102 50 150 101 50 151 99 50 152 104 51 153 103 51 154 102 51 155 106 52 156 104 52 157 102 52 158 108 53 159 107 53 160 106 53 161 110 54 162 113 54 163 112 54 164 112 55 165 109 55 166 108 55 167 116 56 168 113 56 169 111 56 170 115 57 171 107 57 172 109 57 173 118 58 174 117 58 175 116 58 176 120 59 177 123 59 178 122 59 179 122 60 180 118 60 181 116 60 182 124 61 183 123 61 184 121 61 185 126 62 186 125 62 187 124 62 188 128 63 189 126 63 190 124 63 191 132 64 192 130 64 193 131 64 194 139 65 195 137 65 196 138 65 197 133 66 198 138 66 199 134 66 200 143 67 201 141 67 202 145 67 203 139 68 204 142 68 205 136 68 206 14 69 207 145 69 208 15 69 209 143 70 210 147 70 211 140 70 212 151 71 213 149 71 214 150 71 215 140 72 216 150 72 217 141 72 218 151 73 219 153 73 220 148 73 221 152 74 222 155 74 223 153 74 224 155 75 225 157 75 226 153 75 227 156 76 228 159 76 229 157 76 230 159 77 231 161 77 232 157 77 233 160 78 234 163 78 235 161 78 236 160 79 237 165 79 238 162 79 239 164 80 240 167 80 241 165 80 242 164 81 243 169 81 244 166 81 245 168 82 246 171 82 247 169 82 248 171 83 249 173 83 250 169 83 251 172 84 252 175 84 253 173 84 254 179 85 255 177 85 256 178 85 257 175 86 258 178 86 259 173 86 260 179 87 261 181 87 262 176 87 263 180 88 264 183 88 265 181 88 266 183 89 267 185 89 268 181 89 269 184 90 270 187 90 271 185 90 272 191 91 273 189 91 274 190 91 275 187 92 276 190 92 277 185 92 278 191 93 279 193 93 280 188 93 281 192 94 282 195 94 283 193 94 284 199 95 285 197 95 286 198 95 287 195 96 288 198 96 289 193 96 290 199 97 291 201 97 292 196 97 293 200 98 294 203 98 295 201 98 296 203 99 297 205 99 298 201 99 299 204 100 300 207 100 301 205 100 302 207 101 303 209 101 304 205 101 305 208 102 306 211 102 307 209 102 308 208 103 309 213 103 310 210 103 311 212 104 312 215 104 313 213 104 314 212 105 315 217 105 316 214 105 317 216 106 318 219 106 319 217 106 320 219 107 321 221 107 322 217 107 323 220 108 324 223 108 325 221 108 326 223 109 327 225 109 328 221 109 329 224 110 330 227 110 331 225 110 332 224 111 333 229 111 334 226 111 335 228 112 336 231 112 337 229 112 338 231 113 339 233 113 340 229 113 341 232 114 342 235 114 343 233 114 344 235 115 345 237 115 346 233 115 347 236 116 348 239 116 349 237 116 350 243 117 351 241 117 352 242 117 353 238 118 354 242 118 355 239 118 356 243 119 357 247 119 358 240 119 359 236 120 360 245 120 361 238 120 362 246 121 363 249 121 364 247 121 365 253 122 366 251 122 367 252 122 368 249 123 369 252 123 370 247 123 371 253 124 372 255 124 373 250 124 374 254 125 375 257 125 376 255 125 377 257 126 378 259 126 379 255 126 380 58 127 381 188 127 382 59 127 383 24 128 384 154 128 385 25 128 386 54 129 387 190 129 388 60 129 389 127 130 390 254 130 391 125 130 392 93 131 393 220 131 394 91 131 395 128 132 396 258 132 397 129 132 398 25 133 399 152 133 400 23 133 401 60 134 402 189 134 403 58 134 404 124 135 405 259 135 406 128 135 407 90 136 408 225 136 409 94 136 410 61 137 411 187 137 412 56 137 413 129 138 414 257 138 415 126 138 416 22 139 417 157 139 418 26 139 419 95 140 420 223 140 421 92 140 422 27 141 423 155 141 424 24 141 425 96 142 426 226 142 427 97 142 428 28 143 429 158 143 430 29 143 431 94 144 432 227 144 433 96 144 434 59 145 435 193 145 436 62 145 437 63 146 438 191 146 439 61 146 440 29 147 441 156 147 442 27 147 443 64 148 444 194 148 445 65 148 446 97 149 447 229 149 448 99 149 449 26 150 450 161 150 451 30 150 452 98 151 453 224 151 454 95 151 455 65 152 456 192 152 457 63 152 458 31 153 459 159 153 460 28 153 461 101 154 462 230 154 463 100 154 464 66 155 465 196 155 466 67 155 467 32 156 468 162 156 469 33 156 470 62 157 471 198 157 472 68 157 473 30 158 474 163 158 475 32 158 476 100 159 477 228 159 478 98 159 479 0 160 480 130 160 481 4 160 482 68 161 483 197 161 484 66 161 485 99 162 486 233 162 487 102 162 488 1 163 489 131 163 490 0 163 491 69 164 492 195 164 493 64 164 494 33 165 495 165 165 496 35 165 497 103 166 498 231 166 499 101 166 500 34 167 501 160 167 502 31 167 503 104 168 504 234 168 505 105 168 506 2 169 507 134 169 508 3 169 509 37 170 510 166 170 511 36 170 512 4 171 513 135 171 514 2 171 515 67 172 516 201 172 517 70 172 518 35 173 519 167 173 520 37 173 521 105 174 522 232 174 523 103 174 524 5 175 525 132 175 526 1 175 527 71 176 528 199 176 529 69 176 530 72 177 531 202 177 532 73 177 533 102 178 534 237 178 535 106 178 536 6 179 537 136 179 538 7 179 539 36 180 540 169 180 541 39 180 542 107 181 543 235 181 544 104 181 545 3 182 546 138 182 547 8 182 548 73 183 549 200 183 550 71 183 551 38 184 552 164 184 553 34 184 554 41 185 555 170 185 556 40 185 557 106 186 558 239 186 559 108 186 560 8 187 561 137 187 562 6 187 563 70 188 564 205 188 565 74 188 566 9 189 567 133 189 568 5 189 569 75 190 570 203 190 571 72 190 572 40 191 573 168 191 574 38 191 575 110 192 576 240 192 577 111 192 578 76 193 579 206 193 580 77 193 581 108 194 582 242 194 583 112 194 584 39 195 585 173 195 586 42 195 587 7 196 588 142 196 589 12 196 590 77 197 591 204 197 592 75 197 593 43 198 594 171 198 595 41 198 596 112 199 597 241 199 598 110 199 599 44 200 600 174 200 601 45 200 602 113 201 603 238 201 604 109 201 605 74 202 606 209 202 607 78 202 608 13 203 609 139 203 610 9 203 611 79 204 612 207 204 613 76 204 614 45 205 615 172 205 616 43 205 617 115 206 618 244 206 619 114 206 620 12 207 621 144 207 622 13 207 623 80 208 624 210 208 625 81 208 626 46 209 627 176 209 628 47 209 629 78 210 630 211 210 631 80 210 632 42 211 633 178 211 634 48 211 635 111 212 636 247 212 637 116 212 638 15 213 639 141 213 640 10 213 641 117 214 642 243 214 643 113 214 644 48 215 645 177 215 646 46 215 647 109 216 648 245 216 649 115 216 650 81 217 651 213 217 652 83 217 653 49 218 654 175 218 655 44 218 656 114 219 657 236 219 658 107 219 659 82 220 660 208 220 661 79 220 662 118 221 663 248 221 664 119 221 665 85 222 666 214 222 667 84 222 668 16 223 669 146 223 670 17 223 671 83 224 672 215 224 673 85 224 674 47 225 675 181 225 676 50 225 677 119 226 678 246 226 679 117 226 680 11 227 681 147 227 682 16 227 683 51 228 684 179 228 685 49 228 686 120 229 687 250 229 688 121 229 689 17 230 690 143 230 691 14 230 692 52 231 693 182 231 694 53 231 695 116 232 696 252 232 697 122 232 698 18 233 699 148 233 700 19 233 701 84 234 702 217 234 703 87 234 704 10 235 705 150 235 706 20 235 707 86 236 708 212 236 709 82 236 710 53 237 711 180 237 712 51 237 713 122 238 714 251 238 715 120 238 716 89 239 717 218 239 718 88 239 719 123 240 720 249 240 721 118 240 722 20 241 723 149 241 724 18 241 725 50 242 726 185 242 727 54 242 728 21 243 729 140 243 730 11 243 731 88 244 732 216 244 733 86 244 734 55 245 735 183 245 736 52 245 737 56 246 738 186 246 739 57 246 740 121 247 741 255 247 742 124 247 743 87 248 744 221 248 745 90 248 746 125 249 747 253 249 748 123 249 749 19 250 750 153 250 751 22 250 752 91 251 753 219 251 754 89 251 755 57 252 756 184 252 757 55 252 758 126 253 759 256 253 760 127 253 761 23 254 762 151 254 763 21 254 764 92 255 765 222 255 766 93 255 767 2 256 768 3 256 769 5 256 770 4 257 771 5 257 772 1 257 773 6 258 774 7 258 775 9 258 776 8 259 777 9 259 778 5 259 779 10 260 780 11 260 781 14 260 782 12 261 783 13 261 784 9 261 785 133 262 786 134 262 787 135 262 788 16 263 789 17 263 790 14 263 791 18 264 792 19 264 793 21 264 794 20 265 795 21 265 796 11 265 797 22 266 798 23 266 799 21 266 800 24 267 801 25 267 802 23 267 803 26 268 804 27 268 805 24 268 806 28 269 807 29 269 808 27 269 809 30 270 810 31 270 811 28 270 812 32 271 813 33 271 814 31 271 815 35 272 816 34 272 817 31 272 818 37 273 819 36 273 820 34 273 821 39 274 822 38 274 823 34 274 824 41 275 825 40 275 826 38 275 827 42 276 828 43 276 829 41 276 830 44 277 831 45 277 832 43 277 833 46 278 834 47 278 835 49 278 836 48 279 837 49 279 838 44 279 839 50 280 840 51 280 841 49 280 842 52 281 843 53 281 844 51 281 845 54 282 846 55 282 847 52 282 848 56 283 849 57 283 850 55 283 851 58 284 852 59 284 853 61 284 854 60 285 855 61 285 856 56 285 857 62 286 858 63 286 859 61 286 860 64 287 861 65 287 862 63 287 863 66 288 864 67 288 865 69 288 866 68 289 867 69 289 868 64 289 869 70 290 870 71 290 871 69 290 872 72 291 873 73 291 874 71 291 875 74 292 876 75 292 877 72 292 878 76 293 879 77 293 880 75 293 881 78 294 882 79 294 883 76 294 884 80 295 885 81 295 886 79 295 887 83 296 888 82 296 889 79 296 890 85 297 891 84 297 892 82 297 893 87 298 894 86 298 895 82 298 896 89 299 897 88 299 898 86 299 899 90 300 900 91 300 901 89 300 902 92 301 903 93 301 904 91 301 905 94 302 906 95 302 907 92 302 908 96 303 909 97 303 910 95 303 911 99 304 912 98 304 913 95 304 914 101 305 915 100 305 916 98 305 917 102 306 918 103 306 919 101 306 920 104 307 921 105 307 922 103 307 923 106 308 924 107 308 925 104 308 926 108 309 927 109 309 928 107 309 929 110 310 930 111 310 931 113 310 932 112 311 933 113 311 934 109 311 935 116 312 936 117 312 937 113 312 938 115 313 939 114 313 940 107 313 941 118 314 942 119 314 943 117 314 944 120 315 945 121 315 946 123 315 947 122 316 948 123 316 949 118 316 950 124 317 951 125 317 952 123 317 953 126 318 954 127 318 955 125 318 956 128 319 957 129 319 958 126 319 959 132 320 960 133 320 961 130 320 962 139 321 963 136 321 964 137 321 965 133 322 966 139 322 967 138 322 968 143 323 969 140 323 970 141 323 971 139 324 972 144 324 973 142 324 974 14 325 975 143 325 976 145 325 977 143 326 978 146 326 979 147 326 980 151 327 981 148 327 982 149 327 983 140 328 984 151 328 985 150 328 986 151 329 987 152 329 988 153 329 989 152 330 990 154 330 991 155 330 992 155 331 993 156 331 994 157 331 995 156 332 996 158 332 997 159 332 998 159 333 999 160 333 1000 161 333 1001 160 334 1002 162 334 1003 163 334 1004 160 335 1005 164 335 1006 165 335 1007 164 336 1008 166 336 1009 167 336 1010 164 337 1011 168 337 1012 169 337 1013 168 338 1014 170 338 1015 171 338 1016 171 339 1017 172 339 1018 173 339 1019 172 340 1020 174 340 1021 175 340 1022 179 341 1023 176 341 1024 177 341 1025 175 342 1026 179 342 1027 178 342 1028 179 343 1029 180 343 1030 181 343 1031 180 344 1032 182 344 1033 183 344 1034 183 345 1035 184 345 1036 185 345 1037 184 346 1038 186 346 1039 187 346 1040 191 347 1041 188 347 1042 189 347 1043 187 348 1044 191 348 1045 190 348 1046 191 349 1047 192 349 1048 193 349 1049 192 350 1050 194 350 1051 195 350 1052 199 351 1053 196 351 1054 197 351 1055 195 352 1056 199 352 1057 198 352 1058 199 353 1059 200 353 1060 201 353 1061 200 354 1062 202 354 1063 203 354 1064 203 355 1065 204 355 1066 205 355 1067 204 356 1068 206 356 1069 207 356 1070 207 357 1071 208 357 1072 209 357 1073 208 358 1074 210 358 1075 211 358 1076 208 359 1077 212 359 1078 213 359 1079 212 360 1080 214 360 1081 215 360 1082 212 361 1083 216 361 1084 217 361 1085 216 362 1086 218 362 1087 219 362 1088 219 363 1089 220 363 1090 221 363 1091 220 364 1092 222 364 1093 223 364 1094 223 365 1095 224 365 1096 225 365 1097 224 366 1098 226 366 1099 227 366 1100 224 367 1101 228 367 1102 229 367 1103 228 368 1104 230 368 1105 231 368 1106 231 369 1107 232 369 1108 233 369 1109 232 370 1110 234 370 1111 235 370 1112 235 371 1113 236 371 1114 237 371 1115 236 372 1116 238 372 1117 239 372 1118 243 373 1119 240 373 1120 241 373 1121 238 374 1122 243 374 1123 242 374 1124 243 375 1125 246 375 1126 247 375 1127 236 376 1128 244 376 1129 245 376 1130 246 377 1131 248 377 1132 249 377 1133 253 378 1134 250 378 1135 251 378 1136 249 379 1137 253 379 1138 252 379 1139 253 380 1140 254 380 1141 255 380 1142 254 381 1143 256 381 1144 257 381 1145 257 382 1146 258 382 1147 259 382 1148 58 383 1149 189 383 1150 188 383 1151 24 384 1152 155 384 1153 154 384 1154 54 385 1155 185 385 1156 190 385 1157 127 386 1158 256 386 1159 254 386 1160 93 387 1161 222 387 1162 220 387 1163 128 388 1164 259 388 1165 258 388 1166 25 389 1167 154 389 1168 152 389 1169 60 390 1170 190 390 1171 189 390 1172 124 391 1173 255 391 1174 259 391 1175 90 392 1176 221 392 1177 225 392 1178 61 393 1179 191 393 1180 187 393 1181 129 394 1182 258 394 1183 257 394 1184 22 395 1185 153 395 1186 157 395 1187 95 396 1188 224 396 1189 223 396 1190 27 397 1191 156 397 1192 155 397 1193 96 398 1194 227 398 1195 226 398 1196 28 399 1197 159 399 1198 158 399 1199 94 400 1200 225 400 1201 227 400 1202 59 401 1203 188 401 1204 193 401 1205 63 402 1206 192 402 1207 191 402 1208 29 403 1209 158 403 1210 156 403 1211 64 404 1212 195 404 1213 194 404 1214 97 405 1215 226 405 1216 229 405 1217 26 406 1218 157 406 1219 161 406 1220 98 407 1221 228 407 1222 224 407 1223 65 408 1224 194 408 1225 192 408 1226 31 409 1227 160 409 1228 159 409 1229 101 410 1230 231 410 1231 230 410 1232 66 411 1233 197 411 1234 196 411 1235 32 412 1236 163 412 1237 162 412 1238 62 413 1239 193 413 1240 198 413 1241 30 414 1242 161 414 1243 163 414 1244 100 415 1245 230 415 1246 228 415 1247 0 416 1248 131 416 1249 130 416 1250 68 417 1251 198 417 1252 197 417 1253 99 418 1254 229 418 1255 233 418 1256 1 419 1257 132 419 1258 131 419 1259 69 420 1260 199 420 1261 195 420 1262 33 421 1263 162 421 1264 165 421 1265 103 422 1266 232 422 1267 231 422 1268 34 423 1269 164 423 1270 160 423 1271 104 424 1272 235 424 1273 234 424 1274 2 425 1275 135 425 1276 134 425 1277 37 426 1278 167 426 1279 166 426 1280 4 427 1281 130 427 1282 135 427 1283 67 428 1284 196 428 1285 201 428 1286 35 429 1287 165 429 1288 167 429 1289 105 430 1290 234 430 1291 232 430 1292 5 431 1293 133 431 1294 132 431 1295 71 432 1296 200 432 1297 199 432 1298 72 433 1299 203 433 1300 202 433 1301 102 434 1302 233 434 1303 237 434 1304 6 435 1305 137 435 1306 136 435 1307 36 436 1308 166 436 1309 169 436 1310 107 437 1311 236 437 1312 235 437 1313 3 438 1314 134 438 1315 138 438 1316 73 439 1317 202 439 1318 200 439 1319 38 440 1320 168 440 1321 164 440 1322 41 441 1323 171 441 1324 170 441 1325 106 442 1326 237 442 1327 239 442 1328 8 443 1329 138 443 1330 137 443 1331 70 444 1332 201 444 1333 205 444 1334 9 445 1335 139 445 1336 133 445 1337 75 446 1338 204 446 1339 203 446 1340 40 447 1341 170 447 1342 168 447 1343 110 448 1344 241 448 1345 240 448 1346 76 449 1347 207 449 1348 206 449 1349 108 450 1350 239 450 1351 242 450 1352 39 451 1353 169 451 1354 173 451 1355 7 452 1356 136 452 1357 142 452 1358 77 453 1359 206 453 1360 204 453 1361 43 454 1362 172 454 1363 171 454 1364 112 455 1365 242 455 1366 241 455 1367 44 456 1368 175 456 1369 174 456 1370 113 457 1371 243 457 1372 238 457 1373 74 458 1374 205 458 1375 209 458 1376 13 459 1377 144 459 1378 139 459 1379 79 460 1380 208 460 1381 207 460 1382 45 461 1383 174 461 1384 172 461 1385 115 462 1386 245 462 1387 244 462 1388 12 463 1389 142 463 1390 144 463 1391 80 464 1392 211 464 1393 210 464 1394 46 465 1395 177 465 1396 176 465 1397 78 466 1398 209 466 1399 211 466 1400 42 467 1401 173 467 1402 178 467 1403 111 468 1404 240 468 1405 247 468 1406 15 469 1407 145 469 1408 141 469 1409 117 470 1410 246 470 1411 243 470 1412 48 471 1413 178 471 1414 177 471 1415 109 472 1416 238 472 1417 245 472 1418 81 473 1419 210 473 1420 213 473 1421 49 474 1422 179 474 1423 175 474 1424 114 475 1425 244 475 1426 236 475 1427 82 476 1428 212 476 1429 208 476 1430 118 477 1431 249 477 1432 248 477 1433 85 478 1434 215 478 1435 214 478 1436 16 479 1437 147 479 1438 146 479 1439 83 480 1440 213 480 1441 215 480 1442 47 481 1443 176 481 1444 181 481 1445 119 482 1446 248 482 1447 246 482 1448 11 483 1449 140 483 1450 147 483 1451 51 484 1452 180 484 1453 179 484 1454 120 485 1455 251 485 1456 250 485 1457 17 486 1458 146 486 1459 143 486 1460 52 487 1461 183 487 1462 182 487 1463 116 488 1464 247 488 1465 252 488 1466 18 489 1467 149 489 1468 148 489 1469 84 490 1470 214 490 1471 217 490 1472 10 491 1473 141 491 1474 150 491 1475 86 492 1476 216 492 1477 212 492 1478 53 493 1479 182 493 1480 180 493 1481 122 494 1482 252 494 1483 251 494 1484 89 495 1485 219 495 1486 218 495 1487 123 496 1488 253 496 1489 249 496 1490 20 497 1491 150 497 1492 149 497 1493 50 498 1494 181 498 1495 185 498 1496 21 499 1497 151 499 1498 140 499 1499 88 500 1500 218 500 1501 216 500 1502 55 501 1503 184 501 1504 183 501 1505 56 502 1506 187 502 1507 186 502 1508 121 503 1509 250 503 1510 255 503 1511 87 504 1512 217 504 1513 221 504 1514 125 505 1515 254 505 1516 253 505 1517 19 506 1518 148 506 1519 153 506 1520 91 507 1521 220 507 1522 219 507 1523 57 508 1524 186 508 1525 184 508 1526 126 509 1527 257 509 1528 256 509 1529 23 510 1530 152 510 1531 151 510 1532 92 511 1533 223 511 1534 222 511 1535</p>
        </triangles>
      </mesh>
    </geometry>
  </library_geometries>
  <library_visual_scenes>
    <visual_scene id="Scene" name="Scene">
      <node id="Plane" name="Plane" type="NODE">
        <matrix sid="transform">1 0 0 0 0 1 0 0 0 0 1 0 0 0 0 1</matrix>
        <instance_geometry url="#Plane-mesh" name="Plane"/>
      </node>
    </visual_scene>
  </library_visual_scenes>
  <scene>
    <instance_visual_scene url="#Scene"/>
  </scene>
</COLLADA>